<svg width="77" height="77" viewBox="0 0 77 77" fill="none" xmlns="http://www.w3.org/2000/svg">
<rect width="77" height="77" rx="10" fill="url(#paint0_linear_1_1542)"/>
<defs>
<linearGradient id="paint0_linear_1_1542" x1="20.7598" y1="12.5866" x2="76.4054" y2="14.5223" gradientUnits="userSpaceOnUse">
<stop stop-color="#FB6CBB"/>
<stop offset="1" stop-color="#FF0C92"/>
</linearGradient>
</defs>
<g>
<svg width="50" height="50" viewBox="0 0 50 50" fill="none" xmlns="http://www.w3.org/2000/svg">
<path fill-rule="evenodd" clip-rule="evenodd" d="M9.42431 31.8193C10.1725 31.3893 11.1276 31.6471 11.5577 32.3953C12.9386 34.7975 14.9055 36.8109 17.2748 38.2476C19.6442 39.6842 22.3388 40.4974 25.1074 40.6112C25.9696 40.6467 26.6398 41.3744 26.6044 42.2366C26.5689 43.0988 25.8412 43.769 24.979 43.7336C21.6831 43.5981 18.4752 42.63 15.6546 40.9197C12.8339 39.2094 10.4924 36.8125 8.84839 33.9527C8.41832 33.2045 8.67617 32.2494 9.42431 31.8193Z" fill="url(#paint0_linear_1_1543)"/>
<path fill-rule="evenodd" clip-rule="evenodd" d="M42.1382 16.6183C41.39 17.0484 40.4349 16.7905 40.0048 16.0424C38.6239 13.6401 36.657 11.6267 34.2877 10.19C31.9183 8.75338 29.2237 7.94021 26.4551 7.82639C25.5929 7.79094 24.9227 7.06325 24.9581 6.20103C24.9936 5.33881 25.7213 4.66858 26.5835 4.70403C29.8794 4.83952 33.0873 5.80758 35.9079 7.51791C38.7286 9.22824 41.0701 11.6251 42.7141 14.4849C43.1442 15.2331 42.8863 16.1882 42.1382 16.6183Z" fill="url(#paint1_linear_1_1543)"/>
<path fill-rule="evenodd" clip-rule="evenodd" d="M12.5 6.25006C10.7741 6.25006 9.375 7.64917 9.375 9.37506C9.375 11.101 10.7741 12.5001 12.5 12.5001C14.2259 12.5001 15.625 11.101 15.625 9.37506C15.625 7.64917 14.2259 6.25006 12.5 6.25006ZM6.25 9.37506C6.25 5.92328 9.04822 3.12506 12.5 3.12506C15.9518 3.12506 18.75 5.92328 18.75 9.37506C18.75 12.8268 15.9518 15.6251 12.5 15.6251C9.04822 15.6251 6.25 12.8268 6.25 9.37506Z" fill="url(#paint2_linear_1_1543)"/>
<path d="M9.375 9.37506C9.375 7.64917 10.7741 6.25006 12.5 6.25006C14.2259 6.25006 15.625 7.64917 15.625 9.37506C15.625 11.101 14.2259 12.5001 12.5 12.5001C10.7741 12.5001 9.375 11.101 9.375 9.37506Z" fill="url(#paint3_linear_1_1543)"/>
<path fill-rule="evenodd" clip-rule="evenodd" d="M37.5 23.4376C35.7741 23.4376 34.375 24.8367 34.375 26.5626C34.375 28.2885 35.7741 29.6876 37.5 29.6876C39.2259 29.6876 40.625 28.2885 40.625 26.5626C40.625 24.8367 39.2259 23.4376 37.5 23.4376ZM31.25 26.5626C31.25 23.1108 34.0482 20.3126 37.5 20.3126C40.9518 20.3126 43.75 23.1108 43.75 26.5626C43.75 30.0143 40.9518 32.8126 37.5 32.8126C34.0482 32.8126 31.25 30.0143 31.25 26.5626Z" fill="url(#paint4_linear_1_1543)"/>
<path d="M34.375 26.5626C34.375 24.8367 35.7741 23.4376 37.5 23.4376C39.2259 23.4376 40.625 24.8367 40.625 26.5626C40.625 28.2885 39.2259 29.6876 37.5 29.6876C35.7741 29.6876 34.375 28.2885 34.375 26.5626Z" fill="url(#paint5_linear_1_1543)"/>
<path d="M3.125 28.1251C3.125 28.988 3.82456 29.6876 4.6875 29.6876H20.3125C21.1754 29.6876 21.875 28.988 21.875 28.1251V26.5626C21.875 21.3849 17.6777 17.1876 12.5 17.1876C7.32233 17.1876 3.125 21.3849 3.125 26.5626V28.1251Z" fill="url(#paint6_linear_1_1543)"/>
<path d="M28.125 45.3126C28.125 46.1755 28.8246 46.8751 29.6875 46.8751H45.3125C46.1754 46.8751 46.875 46.1755 46.875 45.3126V43.7501C46.875 38.5724 42.6777 34.3751 37.5 34.3751C32.3223 34.3751 28.125 38.5724 28.125 43.7501V45.3126Z" fill="url(#paint7_linear_1_1543)"/>
<defs>
<linearGradient id="paint0_linear_1_1543" x1="8.64026" y1="31.6112" x2="19.8832" y2="48.2715" gradientUnits="userSpaceOnUse">
<stop stop-color="white"/>
<stop offset="0.5625" stop-color="white"/>
<stop offset="1" stop-color="white"/>
</linearGradient>
<linearGradient id="paint1_linear_1_1543" x1="42.9222" y1="16.8264" x2="31.6793" y2="0.166112" gradientUnits="userSpaceOnUse">
<stop stop-color="white"/>
<stop offset="1" stop-color="white"/>
</linearGradient>
<linearGradient id="paint2_linear_1_1543" x1="6.25" y1="3.12506" x2="18.75" y2="15.6251" gradientUnits="userSpaceOnUse">
<stop stop-color="white"/>
<stop offset="1" stop-color="#F5CCCC"/>
</linearGradient>
<linearGradient id="paint3_linear_1_1543" x1="6.25" y1="3.12506" x2="18.75" y2="15.6251" gradientUnits="userSpaceOnUse">
<stop stop-color="white"/>
<stop offset="1" stop-color="#F5CCCC"/>
</linearGradient>
<linearGradient id="paint4_linear_1_1543" x1="31.25" y1="20.3126" x2="43.75" y2="32.8126" gradientUnits="userSpaceOnUse">
<stop stop-color="white"/>
<stop offset="1" stop-color="#F5CCCC"/>
</linearGradient>
<linearGradient id="paint5_linear_1_1543" x1="31.25" y1="20.3126" x2="43.75" y2="32.8126" gradientUnits="userSpaceOnUse">
<stop stop-color="white"/>
<stop offset="1" stop-color="#F5CCCC"/>
</linearGradient>
<linearGradient id="paint6_linear_1_1543" x1="3.125" y1="17.1876" x2="14.6635" y2="34.4953" gradientUnits="userSpaceOnUse">
<stop stop-color="white"/>
<stop offset="1" stop-color="#F5CCCC"/>
</linearGradient>
<linearGradient id="paint7_linear_1_1543" x1="28.125" y1="34.3751" x2="39.6635" y2="51.6828" gradientUnits="userSpaceOnUse">
<stop stop-color="white"/>
<stop offset="1" stop-color="#F5CCCC"/>
</linearGradient>
</defs>
</svg>

</g>
</svg>
