<svg width="77" height="77" viewBox="0 0 77 77" fill="none" xmlns="http://www.w3.org/2000/svg">
<rect width="77" height="77" rx="5" fill="url(#paint0_linear_1_1559)"/>
<defs>
<linearGradient id="paint0_linear_1_1559" x1="-16.1896" y1="31.535" x2="57" y2="81" gradientUnits="userSpaceOnUse">
<stop stop-color="#11F843"/>
<stop offset="1" stop-color="#00C838"/>
</linearGradient>
</defs>
<g>
<svg width="48" height="48" viewBox="0 0 48 48" fill="none" xmlns="http://www.w3.org/2000/svg">
<path fill-rule="evenodd" clip-rule="evenodd" d="M33 21C33 20.1716 33.6716 19.5 34.5 19.5H42C42.8284 19.5 43.5 20.1716 43.5 21V43.5C43.5 44.3284 42.8284 45 42 45H34.5C33.6716 45 33 44.3284 33 43.5V21ZM36 22.5V42H40.5V22.5H36ZM18 27C18 26.1716 18.6716 25.5 19.5 25.5H27C27.8284 25.5 28.5 26.1716 28.5 27V43.5C28.5 44.3284 27.8284 45 27 45H19.5C18.6716 45 18 44.3284 18 43.5V27ZM21 28.5V42H25.5V28.5H21ZM3 33C3 32.1716 3.67157 31.5 4.5 31.5H12C12.8284 31.5 13.5 32.1716 13.5 33V43.5C13.5 44.3284 12.8284 45 12 45H4.5C3.67157 45 3 44.3284 3 43.5V33ZM6 34.5V42H10.5V34.5H6Z" fill="url(#paint0_linear_1_1560)"/>
<path d="M6 42V34.5H10.5V42H6Z" fill="url(#paint1_linear_1_1560)"/>
<path d="M21 42V28.5H25.5V42H21Z" fill="url(#paint2_linear_1_1560)"/>
<path d="M36 42V22.5H40.5V42H36Z" fill="url(#paint3_linear_1_1560)"/>
<path fill-rule="evenodd" clip-rule="evenodd" d="M36 4.5C36 3.67157 36.6716 3 37.5 3H43.5C44.3285 3 45 3.67157 45 4.5V10.5C45 11.3284 44.3285 12 43.5 12C42.6716 12 42 11.3284 42 10.5V7.84027L30.9966 17.6211C30.499 18.0634 29.7695 18.1248 29.205 17.772L17.9552 10.7408L5.22849 17.8112C4.50432 18.2136 3.59111 17.9526 3.18879 17.2285C2.78647 16.5043 3.04739 15.5911 3.77156 15.1888L17.2716 7.68876C17.7487 7.42369 18.3322 7.43872 18.795 7.728L29.8428 14.6328L39.5547 6H37.5C36.6716 6 36 5.32843 36 4.5Z" fill="url(#paint4_linear_1_1560)"/>
<defs>
<linearGradient id="paint0_linear_1_1560" x1="3" y1="19.5" x2="25.9951" y2="56.0216" gradientUnits="userSpaceOnUse">
<stop stop-color="white"/>
<stop offset="1" stop-color="white"/>
</linearGradient>
<linearGradient id="paint1_linear_1_1560" x1="3" y1="19.5" x2="25.9951" y2="56.0216" gradientUnits="userSpaceOnUse">
<stop stop-color="white"/>
<stop offset="1" stop-color="white"/>
</linearGradient>
<linearGradient id="paint2_linear_1_1560" x1="3" y1="19.5" x2="25.9951" y2="56.0216" gradientUnits="userSpaceOnUse">
<stop stop-color="white"/>
<stop offset="1" stop-color="white"/>
</linearGradient>
<linearGradient id="paint3_linear_1_1560" x1="3" y1="19.5" x2="25.9951" y2="56.0216" gradientUnits="userSpaceOnUse">
<stop stop-color="white"/>
<stop offset="1" stop-color="white"/>
</linearGradient>
<linearGradient id="paint4_linear_1_1560" x1="2.99976" y1="3" x2="12.5023" y2="29.6067" gradientUnits="userSpaceOnUse">
<stop stop-color="white"/>
<stop offset="1" stop-color="white"/>
</linearGradient>
</defs>
</svg>

</g>
</svg>
