<svg width="77" height="77" viewBox="0 0 77 77" fill="none" xmlns="http://www.w3.org/2000/svg">
<rect width="77" height="77" rx="5" fill="url(#paint0_linear_1_1498)"/>
<defs>
<linearGradient id="paint0_linear_1_1498" x1="-16.1896" y1="31.535" x2="57" y2="81" gradientUnits="userSpaceOnUse">
<stop stop-color="#FCD546"/>
<stop offset="1" stop-color="#FF843E"/>
</linearGradient>
</defs>
<g>
<path d="M25.0265 28.332H14.6376C12.8148 28.332 11.332 26.8493 11.332 25.0265V14.6376C11.332 12.8148 12.8148 11.332 14.6376 11.332H25.0265C26.8493 11.332 28.332 12.8148 28.332 14.6376V25.0265C28.332 26.8493 26.8493 28.332 25.0265 28.332ZM14.6376 14.1654C14.3769 14.1654 14.1654 14.3769 14.1654 14.6376V25.0265C14.1654 25.2871 14.3769 25.4987 14.6376 25.4987H25.0265C25.2871 25.4987 25.4987 25.2871 25.4987 25.0265V14.6376C25.4987 14.3769 25.2871 14.1654 25.0265 14.1654H14.6376Z" fill="white"/>
<path d="M53.3585 28.332H42.9696C41.1468 28.332 39.6641 26.8493 39.6641 25.0265V14.6376C39.6641 12.8148 41.1468 11.332 42.9696 11.332H53.3585C55.1813 11.332 56.6641 12.8148 56.6641 14.6376V25.0265C56.6641 26.8493 55.1813 28.332 53.3585 28.332ZM42.9696 14.1654C42.709 14.1654 42.4974 14.3769 42.4974 14.6376V25.0265C42.4974 25.2871 42.709 25.4987 42.9696 25.4987H53.3585C53.6192 25.4987 53.8307 25.2871 53.8307 25.0265V14.6376C53.8307 14.3769 53.6192 14.1654 53.3585 14.1654H42.9696Z" fill="white"/>
<path d="M25.0265 56.6648H14.6376C12.8148 56.6648 11.332 55.182 11.332 53.3592V42.9704C11.332 41.1476 12.8148 39.6648 14.6376 39.6648H25.0265C26.8493 39.6648 28.332 41.1476 28.332 42.9704V53.3592C28.332 55.182 26.8493 56.6648 25.0265 56.6648ZM14.6376 42.4981C14.3769 42.4981 14.1654 42.7097 14.1654 42.9704V53.3592C14.1654 53.6199 14.3769 53.8315 14.6376 53.8315H25.0265C25.2871 53.8315 25.4987 53.6199 25.4987 53.3592V42.9704C25.4987 42.7097 25.2871 42.4981 25.0265 42.4981H14.6376Z" fill="white"/>
<path d="M53.3585 56.6641H42.9696C41.1468 56.6641 39.6641 55.1813 39.6641 53.3585V42.9696C39.6641 41.1468 41.1468 39.6641 42.9696 39.6641H53.3585C55.1813 39.6641 56.6641 41.1468 56.6641 42.9696V53.3585C56.6641 55.1813 55.1813 56.6641 53.3585 56.6641ZM42.9696 42.4974C42.709 42.4974 42.4974 42.709 42.4974 42.9696V53.3585C42.4974 53.6192 42.709 53.8307 42.9696 53.8307H53.3585C53.6192 53.8307 53.8307 53.6192 53.8307 53.3585V42.9696C53.8307 42.709 53.6192 42.4974 53.3585 42.4974H42.9696Z" fill="white"/>
<path d="M19.832 18.4148H40.6098V21.2481H19.832V18.4148Z" fill="white"/>
<path d="M27.3867 46.75H48.1645V49.5833H27.3867V46.75Z" fill="white"/>
<path d="M46.75 19.832H49.5833V40.6098H46.75V19.832Z" fill="white"/>
<path d="M18.4141 27.3887H21.2474V48.1664H18.4141V27.3887Z" fill="white"/>
</g>
</svg>
