<svg width="108" height="16" viewBox="0 0 108 16" fill="none" xmlns="http://www.w3.org/2000/svg">
<g id="Group">
<g id="shape-star">
<path id="Path" fill-rule="evenodd" clip-rule="evenodd" d="M16.6821 5.8322L11.3735 5.05813L9.00027 0.230426C8.93271 0.115117 8.80938 0.0443115 8.6761 0.0443115C8.54281 0.0443115 8.41948 0.115117 8.35192 0.230426L5.97766 5.05704L0.667557 5.8322C0.531344 5.85193 0.418101 5.94755 0.375433 6.07887C0.332765 6.21018 0.36807 6.35442 0.466507 6.45095L4.30887 10.2092L3.40198 15.5155C3.37883 15.6516 3.43458 15.789 3.54581 15.8702C3.65704 15.9513 3.8045 15.9621 3.9263 15.898L8.67483 13.3929L13.4234 15.897C13.5452 15.961 13.6926 15.9502 13.8039 15.8691C13.9151 15.7879 13.9708 15.6505 13.9477 15.5145L13.0408 10.2092L16.8832 6.45095C16.9816 6.35447 17.0169 6.2103 16.9743 6.07901C16.9318 5.94771 16.8186 5.85205 16.6825 5.8322H16.6821Z" fill="#F5A623"/>
</g>
<g id="shape-star copy">
<path id="Path_2" fill-rule="evenodd" clip-rule="evenodd" d="M39.2459 5.8322L33.9373 5.05813L31.5641 0.230426C31.4966 0.115117 31.3732 0.0443115 31.2399 0.0443115C31.1067 0.0443115 30.9833 0.115117 30.9158 0.230426L28.5415 5.05704L23.2314 5.8322C23.0952 5.85193 22.9819 5.94755 22.9393 6.07887C22.8966 6.21018 22.9319 6.35442 23.0304 6.45095L26.8727 10.2092L25.9658 15.5155C25.9427 15.6516 25.9984 15.789 26.1097 15.8702C26.2209 15.9513 26.3683 15.9621 26.4901 15.898L31.2387 13.3929L35.9872 15.897C36.109 15.961 36.2565 15.9502 36.3677 15.8691C36.4789 15.7879 36.5347 15.6505 36.5115 15.5145L35.6046 10.2092L39.447 6.45095C39.5454 6.35447 39.5808 6.2103 39.5382 6.07901C39.4956 5.94771 39.3825 5.85205 39.2463 5.8322H39.2459Z" fill="#F5A623"/>
</g>
<g id="shape-star copy 2">
<path id="Path_3" fill-rule="evenodd" clip-rule="evenodd" d="M61.8098 5.8322L56.5011 5.05813L54.128 0.230426C54.0604 0.115117 53.9371 0.0443115 53.8038 0.0443115C53.6705 0.0443115 53.5472 0.115117 53.4796 0.230426L51.1053 5.05704L45.7952 5.8322C45.659 5.85193 45.5458 5.94755 45.5031 6.07887C45.4605 6.21018 45.4958 6.35442 45.5942 6.45095L49.4366 10.2092L48.5297 15.5155C48.5065 15.6516 48.5623 15.789 48.6735 15.8702C48.7847 15.9513 48.9322 15.9621 49.054 15.898L53.8025 13.3929L58.5511 15.897C58.6728 15.961 58.8203 15.9502 58.9315 15.8691C59.0428 15.7879 59.0985 15.6505 59.0754 15.5145L58.1685 10.2092L62.0108 6.45095C62.1093 6.35447 62.1446 6.2103 62.102 6.07901C62.0594 5.94771 61.9463 5.85205 61.8102 5.8322H61.8098Z" fill="#F5A623"/>
</g>
<g id="shape-star copy 3">
<path id="Path_4" fill-rule="evenodd" clip-rule="evenodd" d="M84.3736 5.8322L79.065 5.05813L76.6918 0.230426C76.6242 0.115117 76.5009 0.0443115 76.3676 0.0443115C76.2343 0.0443115 76.111 0.115117 76.0435 0.230426L73.6692 5.05704L68.3591 5.8322C68.2229 5.85193 68.1096 5.94755 68.067 6.07887C68.0243 6.21018 68.0596 6.35442 68.158 6.45095L72.0004 10.2092L71.0935 15.5155C71.0704 15.6516 71.1261 15.789 71.2373 15.8702C71.3486 15.9513 71.496 15.9621 71.6178 15.898L76.3664 13.3929L81.1149 15.897C81.2367 15.961 81.3842 15.9502 81.4954 15.8691C81.6066 15.7879 81.6624 15.6505 81.6392 15.5145L80.7323 10.2092L84.5747 6.45095C84.6731 6.35447 84.7084 6.2103 84.6659 6.07901C84.6233 5.94771 84.5101 5.85205 84.374 5.8322H84.3736Z" fill="#F5A623"/>
</g>
<g id="shape-star copy 4">
<path id="Path_5" fill-rule="evenodd" clip-rule="evenodd" d="M106.938 5.8322L101.629 5.05813L99.2557 0.230426C99.1881 0.115117 99.0648 0.0443115 98.9315 0.0443115C98.7982 0.0443115 98.6749 0.115117 98.6073 0.230426L96.2331 5.05704L90.923 5.8322C90.7867 5.85193 90.6735 5.94755 90.6308 6.07887C90.5882 6.21018 90.6235 6.35442 90.7219 6.45095L94.5643 10.2092L93.6574 15.5155C93.6342 15.6516 93.69 15.789 93.8012 15.8702C93.9124 15.9513 94.0599 15.9621 94.1817 15.898L98.9302 13.3929L103.679 15.897C103.801 15.961 103.948 15.9502 104.059 15.8691C104.17 15.7879 104.226 15.6505 104.203 15.5145L103.296 10.2092L107.139 6.45095C107.237 6.35447 107.272 6.2103 107.23 6.07901C107.187 5.94771 107.074 5.85205 106.938 5.8322H106.938Z" fill="#F5A623"/>
</g>
</g>
</svg>
