<svg width="700" height="650" viewBox="0 0 805 683" fill="none" xmlns="http://www.w3.org/2000/svg">
<g filter="url(#filter0_d_1_1070)">
<rect x="80" y="44" width="737" height="498.778" rx="23" fill="white"/>
<mask id="mask0_1_1070" style="mask-type:luminance" maskUnits="userSpaceOnUse" x="80" y="44" width="737" height="499">
<rect x="80" y="44" width="737" height="498.778" rx="23" fill="white"/>
</mask>
<g mask="url(#mask0_1_1070)">
</g>
<rect x="80" y="44" width="153.493" height="498.778" rx="23" fill="#F2F5FC"/>
<rect x="159.676" y="404.619" width="73.8172" height="138.159" fill="#F2F5FC"/>
<g filter="url(#filter1_d_1_1070)">
<rect x="80" y="44" width="737" height="70.2504" rx="23" fill="white"/>
</g>
<g filter="url(#filter2_d_1_1070)">
<rect x="80" y="79.1252" width="737" height="35.1252" fill="white"/>
</g>
<rect x="341.289" y="74.4417" width="42.1812" height="9.36673" rx="4" fill="#EAECF1"/>
<rect x="398.703" y="74.4417" width="42.1813" height="9.36673" rx="4" fill="#EAECF1"/>
<rect x="457.288" y="74.4417" width="42.1812" height="9.36673" rx="4" fill="#EAECF1"/>
<rect x="514.701" y="74.4417" width="42.1813" height="9.36673" rx="4" fill="#EAECF1"/>
<path fill-rule="evenodd" clip-rule="evenodd" d="M768.374 92.0044C775.169 92.0044 780.677 86.5002 780.677 79.7106C780.677 72.9209 775.169 67.4167 768.374 67.4167C761.58 67.4167 756.072 72.9209 756.072 79.7106C756.072 86.5002 761.58 92.0044 768.374 92.0044Z" fill="#1BA779"/>
<path fill-rule="evenodd" clip-rule="evenodd" d="M735.567 92.0044C742.361 92.0044 747.87 86.5002 747.87 79.7106C747.87 72.9209 742.361 67.4167 735.567 67.4167C728.772 67.4167 723.264 72.9209 723.264 79.7106C723.264 86.5002 728.772 92.0044 735.567 92.0044Z" fill="#079BD9"/>
<path fill-rule="evenodd" clip-rule="evenodd" d="M107.535 177.476C113.035 177.476 117.494 173.02 117.494 167.524C117.494 162.027 113.035 157.572 107.535 157.572C102.035 157.572 97.5756 162.027 97.5756 167.524C97.5756 173.02 102.035 177.476 107.535 177.476Z" fill="#E0C43E"/>
<rect x="124.525" y="162.255" width="70.3021" height="10.5375" rx="4.5" fill="white"/>
<path fill-rule="evenodd" clip-rule="evenodd" d="M107.535 206.747C113.035 206.747 117.494 202.291 117.494 196.795C117.494 191.298 113.035 186.843 107.535 186.843C102.035 186.843 97.5756 191.298 97.5756 196.795C97.5756 202.291 102.035 206.747 107.535 206.747Z" fill="#3B94D8"/>
<rect x="124.525" y="191.526" width="70.3021" height="10.5376" rx="4.5" fill="white"/>
<path fill-rule="evenodd" clip-rule="evenodd" d="M107.535 237.189C113.035 237.189 117.494 232.733 117.494 227.237C117.494 221.74 113.035 217.284 107.535 217.284C102.035 217.284 97.5756 221.74 97.5756 227.237C97.5756 232.733 102.035 237.189 107.535 237.189Z" fill="#BA3BEA"/>
<rect x="124.525" y="221.968" width="70.3021" height="10.5376" rx="4.5" fill="white"/>
<rect x="97.5756" y="137.667" width="70.302" height="10.5376" rx="4.5" fill="white"/>
<path fill-rule="evenodd" clip-rule="evenodd" d="M107.535 295.73C113.035 295.73 117.494 291.275 117.494 285.778C117.494 280.282 113.035 275.826 107.535 275.826C102.035 275.826 97.5756 280.282 97.5756 285.778C97.5756 291.275 102.035 295.73 107.535 295.73Z" fill="#ADDA3F"/>
<rect x="124.525" y="280.51" width="70.3021" height="10.5376" rx="4.5" fill="white"/>
<path fill-rule="evenodd" clip-rule="evenodd" d="M107.535 325.001C113.035 325.001 117.494 320.546 117.494 315.049C117.494 309.553 113.035 305.097 107.535 305.097C102.035 305.097 97.5756 309.553 97.5756 315.049C97.5756 320.546 102.035 325.001 107.535 325.001Z" fill="#1DC878"/>
<rect x="124.525" y="309.781" width="70.3021" height="10.5377" rx="4.5" fill="white"/>
<path fill-rule="evenodd" clip-rule="evenodd" d="M107.535 355.443C113.035 355.443 117.494 350.988 117.494 345.491C117.494 339.995 113.035 335.539 107.535 335.539C102.035 335.539 97.5756 339.995 97.5756 345.491C97.5756 350.988 102.035 355.443 107.535 355.443Z" fill="#3175E3"/>
<rect x="124.525" y="340.222" width="70.3021" height="10.5375" rx="4.5" fill="white"/>
<path fill-rule="evenodd" clip-rule="evenodd" d="M107.535 384.714C113.035 384.714 117.494 380.259 117.494 374.762C117.494 369.266 113.035 364.81 107.535 364.81C102.035 364.81 97.5756 369.266 97.5756 374.762C97.5756 380.259 102.035 384.714 107.535 384.714Z" fill="#C81BB5"/>
<rect x="124.525" y="369.493" width="70.3021" height="10.5376" rx="4.5" fill="white"/>
<rect x="97.5756" y="255.922" width="70.302" height="10.5376" rx="4.5" fill="white"/>
<rect x="276.044" y="147.529" width="3.67271" height="355.88" rx="1.83635" transform="rotate(-90 276.044 147.529)" fill="#EAECF1"/>
<path fill-rule="evenodd" clip-rule="evenodd" d="M290.092 145.693C290.092 139.221 284.851 133.974 278.385 133.974C271.92 133.974 266.679 139.221 266.679 145.693C266.679 152.165 271.92 157.412 278.385 157.412C284.851 157.412 290.092 152.165 290.092 145.693Z" fill="#76D1AD"/>
<path fill-rule="evenodd" clip-rule="evenodd" d="M432.912 145.693C432.912 139.221 427.671 133.974 421.206 133.974C414.74 133.974 409.499 139.221 409.499 145.693C409.499 152.165 414.74 157.412 421.206 157.412C427.671 157.412 432.912 152.165 432.912 145.693Z" fill="#FCC250"/>
<path fill-rule="evenodd" clip-rule="evenodd" d="M575.732 145.693C575.732 139.221 570.491 133.974 564.026 133.974C557.56 133.974 552.319 139.221 552.319 145.693C552.319 152.165 557.56 157.412 564.026 157.412C570.491 157.412 575.732 152.165 575.732 145.693Z" fill="#1BA779"/>
<g filter="url(#filter3_d_1_1070)">
<rect x="635.392" y="177.584" width="145.094" height="337.324" rx="7" fill="white"/>
</g>
<path fill-rule="evenodd" clip-rule="evenodd" d="M654.719 226.651C658.926 226.651 662.335 223.244 662.335 219.041C662.335 214.838 658.926 211.43 654.719 211.43C650.513 211.43 647.103 214.838 647.103 219.041C647.103 223.244 650.513 226.651 654.719 226.651Z" fill="#6087E8"/>
<rect x="667.022" y="214.943" width="53.8981" height="8.19583" rx="4.09792" fill="#EAECF1"/>
<path fill-rule="evenodd" clip-rule="evenodd" d="M654.719 269.972C658.926 269.972 662.335 266.565 662.335 262.362C662.335 258.159 658.926 254.751 654.719 254.751C650.513 254.751 647.103 258.159 647.103 262.362C647.103 266.565 650.513 269.972 654.719 269.972Z" fill="#7DD82B"/>
<rect x="667.022" y="258.264" width="53.8981" height="8.19588" rx="4.09794" fill="#EAECF1"/>
<path fill-rule="evenodd" clip-rule="evenodd" d="M654.719 247.726C658.926 247.726 662.335 244.319 662.335 240.116C662.335 235.912 658.926 232.505 654.719 232.505C650.513 232.505 647.103 235.912 647.103 240.116C647.103 244.319 650.513 247.726 654.719 247.726Z" fill="#D83AE2"/>
<rect x="667.022" y="236.018" width="53.8981" height="8.19589" rx="4.09795" fill="#EAECF1"/>
<rect x="647.103" y="195.038" width="71.4738" height="8.19591" rx="4.09795" fill="#EAECF1"/>
<path fill-rule="evenodd" clip-rule="evenodd" d="M764.859 223.139C767.124 223.139 768.96 221.304 768.96 219.041C768.96 216.777 767.124 214.943 764.859 214.943C762.594 214.943 760.758 216.777 760.758 219.041C760.758 221.304 762.594 223.139 764.859 223.139Z" stroke="#EAECF1"/>
<path fill-rule="evenodd" clip-rule="evenodd" d="M764.859 244.214C767.124 244.214 768.96 242.379 768.96 240.116C768.96 237.853 767.124 236.018 764.859 236.018C762.594 236.018 760.758 237.853 760.758 240.116C760.758 242.379 762.594 244.214 764.859 244.214Z" stroke="#EAECF1"/>
<path fill-rule="evenodd" clip-rule="evenodd" d="M764.859 266.46C767.124 266.46 768.96 264.625 768.96 262.362C768.96 260.098 767.124 258.264 764.859 258.264C762.594 258.264 760.758 260.098 760.758 262.362C760.758 264.625 762.594 266.46 764.859 266.46Z" stroke="#EAECF1"/>
<path fill-rule="evenodd" clip-rule="evenodd" d="M654.719 319.716C658.926 319.716 662.335 316.309 662.335 312.105C662.335 307.902 658.926 304.495 654.719 304.495C650.513 304.495 647.103 307.902 647.103 312.105C647.103 316.309 650.513 319.716 654.719 319.716Z" fill="#F3337F"/>
<rect x="667.022" y="308.007" width="53.8981" height="8.19592" rx="4.09796" fill="#EAECF1"/>
<path fill-rule="evenodd" clip-rule="evenodd" d="M654.719 363.037C658.926 363.037 662.335 359.63 662.335 355.426C662.335 351.223 658.926 347.816 654.719 347.816C650.513 347.816 647.103 351.223 647.103 355.426C647.103 359.63 650.513 363.037 654.719 363.037Z" fill="#EA6B35"/>
<rect x="667.022" y="351.328" width="53.8981" height="8.19589" rx="4.09795" fill="#EAECF1"/>
<path fill-rule="evenodd" clip-rule="evenodd" d="M654.719 340.791C658.926 340.791 662.335 337.384 662.335 333.181C662.335 328.977 658.926 325.57 654.719 325.57C650.513 325.57 647.103 328.977 647.103 333.181C647.103 337.384 650.513 340.791 654.719 340.791Z" fill="#E3CE2E"/>
<rect x="667.022" y="329.083" width="53.8981" height="8.19586" rx="4.09793" fill="#EAECF1"/>
<rect x="647.103" y="288.103" width="71.4738" height="8.19591" rx="4.09795" fill="#EAECF1"/>
<path fill-rule="evenodd" clip-rule="evenodd" d="M764.859 316.203C767.124 316.203 768.96 314.369 768.96 312.105C768.96 309.842 767.124 308.007 764.859 308.007C762.594 308.007 760.758 309.842 760.758 312.105C760.758 314.369 762.594 316.203 764.859 316.203Z" stroke="#EAECF1"/>
<path fill-rule="evenodd" clip-rule="evenodd" d="M764.859 337.278C767.124 337.278 768.96 335.444 768.96 333.18C768.96 330.917 767.124 329.083 764.859 329.083C762.594 329.083 760.758 330.917 760.758 333.18C760.758 335.444 762.594 337.278 764.859 337.278Z" stroke="#EAECF1"/>
<path fill-rule="evenodd" clip-rule="evenodd" d="M764.859 359.524C767.124 359.524 768.96 357.69 768.96 355.426C768.96 353.163 767.124 351.328 764.859 351.328C762.594 351.328 760.758 353.163 760.758 355.426C760.758 357.69 762.594 359.524 764.859 359.524Z" stroke="#EAECF1"/>
<path fill-rule="evenodd" clip-rule="evenodd" d="M650.696 412.936C654.902 412.936 658.312 409.529 658.312 405.326C658.312 401.123 654.902 397.715 650.696 397.715C646.489 397.715 643.08 401.123 643.08 405.326C643.08 409.529 646.489 412.936 650.696 412.936Z" fill="#F3337F"/>
<rect x="662.998" y="401.228" width="53.8982" height="8.19592" rx="4.09796" fill="#EAECF1"/>
<path fill-rule="evenodd" clip-rule="evenodd" d="M650.696 456.257C654.902 456.257 658.312 452.85 658.312 448.647C658.312 444.444 654.902 441.036 650.696 441.036C646.489 441.036 643.08 444.444 643.08 448.647C643.08 452.85 646.489 456.257 650.696 456.257Z" fill="#EA6B35"/>
<rect x="662.998" y="444.549" width="53.8982" height="8.19586" rx="4.09793" fill="#EAECF1"/>
<path fill-rule="evenodd" clip-rule="evenodd" d="M650.696 434.011C654.902 434.011 658.312 430.604 658.312 426.401C658.312 422.198 654.902 418.791 650.696 418.791C646.489 418.791 643.08 422.198 643.08 426.401C643.08 430.604 646.489 434.011 650.696 434.011Z" fill="#E3CE2E"/>
<rect x="662.998" y="422.303" width="53.8982" height="8.19586" rx="4.09793" fill="#EAECF1"/>
<rect x="643.08" y="381.324" width="71.4737" height="8.19589" rx="4.09795" fill="#EAECF1"/>
<path fill-rule="evenodd" clip-rule="evenodd" d="M760.835 409.424C763.1 409.424 764.936 407.589 764.936 405.326C764.936 403.063 763.1 401.228 760.835 401.228C758.571 401.228 756.734 403.063 756.734 405.326C756.734 407.589 758.571 409.424 760.835 409.424Z" stroke="#EAECF1"/>
<path fill-rule="evenodd" clip-rule="evenodd" d="M760.835 430.499C763.1 430.499 764.936 428.664 764.936 426.401C764.936 424.138 763.1 422.303 760.835 422.303C758.571 422.303 756.734 424.138 756.734 426.401C756.734 428.664 758.571 430.499 760.835 430.499Z" stroke="#EAECF1"/>
<path fill-rule="evenodd" clip-rule="evenodd" d="M760.835 452.745C763.1 452.745 764.936 450.91 764.936 448.647C764.936 446.384 763.1 444.549 760.835 444.549C758.571 444.549 756.734 446.384 756.734 448.647C756.734 450.91 758.571 452.745 760.835 452.745Z" stroke="#EAECF1"/>
</g>
<path d="M113.543 80.1515C116.679 80.1515 119.221 77.6522 119.221 74.5692C119.221 71.4861 116.679 68.9868 113.543 68.9868C110.408 68.9868 107.866 71.4861 107.866 74.5692C107.866 77.6522 110.408 80.1515 113.543 80.1515Z" fill="#FF5645"/>
<path d="M132.07 80.1515C135.205 80.1515 137.747 77.6522 137.747 74.5692C137.747 71.4861 135.205 68.9868 132.07 68.9868C128.934 68.9868 126.392 71.4861 126.392 74.5692C126.392 77.6522 128.934 80.1515 132.07 80.1515Z" fill="#FFCB3D"/>
<path d="M151.194 80.1515C154.329 80.1515 156.871 77.6522 156.871 74.5692C156.871 71.4861 154.329 68.9868 151.194 68.9868C148.058 68.9868 145.516 71.4861 145.516 74.5692C145.516 77.6522 148.058 80.1515 151.194 80.1515Z" fill="#3ABF7C"/>
<g filter="url(#filter4_d_1_1070)">
<circle cx="244" cy="52" r="32" fill="white"/>
</g>
<path fill-rule="evenodd" clip-rule="evenodd" d="M244 60.75C244.361 60.75 244.701 60.9236 244.912 61.2166L249.784 67.9666C250.147 68.4705 250.034 69.1736 249.53 69.5372C249.026 69.9008 248.323 69.7872 247.959 69.2834L244 63.7974L240.041 69.2834C239.677 69.7872 238.974 69.9008 238.47 69.5372C237.966 69.1736 237.853 68.4705 238.216 67.9666L243.088 61.2166C243.299 60.9236 243.639 60.75 244 60.75Z" fill="url(#paint0_linear_1_1070)"/>
<path fill-rule="evenodd" clip-rule="evenodd" d="M228.25 41.625C228.25 39.761 229.761 38.25 231.625 38.25H256.375C258.239 38.25 259.75 39.761 259.75 41.625C259.75 43.489 258.239 45 256.375 45H231.625C229.761 45 228.25 43.489 228.25 41.625ZM231.625 40.5C231.004 40.5 230.5 41.0037 230.5 41.625C230.5 42.2463 231.004 42.75 231.625 42.75H256.375C256.996 42.75 257.5 42.2463 257.5 41.625C257.5 41.0037 256.996 40.5 256.375 40.5H231.625Z" fill="url(#paint1_linear_1_1070)"/>
<path d="M230.5 41.625C230.5 41.0037 231.004 40.5 231.625 40.5H256.375C256.996 40.5 257.5 41.0037 257.5 41.625C257.5 42.2463 256.996 42.75 256.375 42.75H231.625C231.004 42.75 230.5 42.2463 230.5 41.625Z" fill="url(#paint2_linear_1_1070)"/>
<path fill-rule="evenodd" clip-rule="evenodd" d="M228.25 59.625C228.25 57.761 229.761 56.25 231.625 56.25H256.375C258.239 56.25 259.75 57.761 259.75 59.625C259.75 61.489 258.239 63 256.375 63H231.625C229.761 63 228.25 61.489 228.25 59.625ZM231.625 58.5C231.004 58.5 230.5 59.0037 230.5 59.625C230.5 60.2463 231.004 60.75 231.625 60.75H256.375C256.996 60.75 257.5 60.2463 257.5 59.625C257.5 59.0037 256.996 58.5 256.375 58.5H231.625Z" fill="url(#paint3_linear_1_1070)"/>
<path d="M230.5 59.625C230.5 59.0037 231.004 58.5 231.625 58.5H256.375C256.996 58.5 257.5 59.0037 257.5 59.625C257.5 60.2463 256.996 60.75 256.375 60.75H231.625C231.004 60.75 230.5 60.2463 230.5 59.625Z" fill="url(#paint4_linear_1_1070)"/>
<path fill-rule="evenodd" clip-rule="evenodd" d="M230.5 43.875C230.5 43.2537 231.004 42.75 231.625 42.75H256.375C256.996 42.75 257.5 43.2537 257.5 43.875V57.375C257.5 57.9963 256.996 58.5 256.375 58.5H231.625C231.004 58.5 230.5 57.9963 230.5 57.375V43.875ZM232.75 45V56.25H255.25V45H232.75Z" fill="url(#paint5_linear_1_1070)"/>
<path d="M232.75 56.25V45H255.25V56.25H232.75Z" fill="url(#paint6_linear_1_1070)"/>
<path fill-rule="evenodd" clip-rule="evenodd" d="M252.704 46.4898C253.124 46.9478 253.093 47.6595 252.635 48.0793L245.885 54.2668C245.493 54.626 244.904 54.6619 244.471 54.353L241.251 52.0526L237.982 54.8542C237.51 55.2585 236.8 55.2039 236.396 54.7321C235.992 54.2604 236.046 53.5502 236.518 53.1458L240.455 49.7708C240.848 49.4341 241.42 49.4088 241.841 49.7096L245.037 51.9921L251.115 46.4207C251.573 46.0009 252.284 46.0318 252.704 46.4898Z" fill="white"/>
<path fill-rule="evenodd" clip-rule="evenodd" d="M680.5 564C700.658 564 717 547.658 717 527.5C717 507.342 700.658 491 680.5 491C660.342 491 644 507.342 644 527.5C644 547.658 660.342 564 680.5 564Z" fill="url(#paint7_linear_1_1070)"/>
<path fill-rule="evenodd" clip-rule="evenodd" d="M668.1 515H692.9C694.613 515 696 516.454 696 518.25V537.75C696 539.546 694.613 541 692.9 541H668.1C666.387 541 665 539.546 665 537.75L665.015 518.25C665.015 516.454 666.387 515 668.1 515ZM680.5 529.625L692.9 521.5V518.25L680.5 526.375L668.1 518.25V521.5L680.5 529.625Z" fill="white"/>
<path d="M497.868 187.949H431.833V254.023H497.868V187.949Z" stroke="#E1E5F0" stroke-width="2.17647"/>
<path d="M434.639 185.105H428.991V190.757H434.639V185.105Z" fill="#E1E5F0"/>
<path d="M434.639 251.215H428.991V256.867H434.639V251.215Z" fill="#D8DEED"/>
<path d="M500.711 185.105H495.062V190.757H500.711V185.105Z" fill="#CCF2FF"/>
<path d="M500.711 251.215H495.062V256.867H500.711V251.215Z" fill="#CCF2FF"/>
<path d="M509.056 210.995H477.387C474.982 210.995 473.014 209.026 473.014 206.619V174.931C473.014 172.525 474.982 170.556 477.387 170.556H509.056C511.461 170.556 513.429 172.525 513.429 174.931V206.619C513.429 209.026 511.461 210.995 509.056 210.995Z" fill="#E1E5F0"/>
<path d="M503.808 190.273V189.736C503.808 188.93 504.461 188.277 505.266 188.277C506.071 188.277 506.724 188.93 506.724 189.736V199.654C506.724 200.46 506.071 201.113 505.266 201.113C504.66 201.113 504.14 200.742 503.92 200.216C503.021 200.784 501.958 201.113 500.82 201.113C497.61 201.113 494.989 198.491 494.989 195.278C494.989 192.066 497.61 189.444 500.82 189.444C501.911 189.444 502.934 189.747 503.808 190.273ZM485.318 189.845H489.161L487.134 182.823L485.318 189.845ZM484.564 192.762L482.734 199.837C482.533 200.617 481.737 201.086 480.958 200.884C480.179 200.682 479.71 199.886 479.912 199.107L484.506 181.34C485.21 178.679 488.925 178.646 489.721 181.272L494.859 199.067C495.083 199.841 494.637 200.65 493.863 200.873C493.09 201.097 492.282 200.651 492.058 199.877L490.004 192.762H484.564ZM500.82 198.196C502.42 198.196 503.736 196.88 503.736 195.278C503.736 193.677 502.42 192.361 500.82 192.361C499.22 192.361 497.905 193.677 497.905 195.278C497.905 196.88 499.22 198.196 500.82 198.196Z" fill="#F2F6FB"/>
<path d="M492.596 309.378L468.665 293.951C468.345 294.174 468.345 294.174 468.058 294.428L477.004 321.369C477.004 321.369 480.519 320.892 483.235 319.365L487.292 324.581L493.203 320.033L489.146 314.785C490.296 312.972 491.446 311.159 492.596 309.378Z" fill="#E1E5F0"/>
<path d="M473.16 226.491C473.16 224.478 474.792 222.845 476.803 222.845H510.257L523.816 236.265V278.636C523.816 280.65 522.188 282.283 520.173 282.283H476.803C474.791 282.283 473.16 280.646 473.16 278.637V226.491Z" fill="#F2F6FB"/>
<path d="M498.946 263.006H483.278C482.997 263.006 482.892 262.815 483.047 262.577L493.85 245.898C494.003 245.661 494.258 245.659 494.415 245.887L502.163 257.277L505.481 252.124C505.634 251.887 505.892 251.877 506.06 252.104L513.815 262.593C513.982 262.819 513.889 263.004 513.607 263.007L506.534 263.073L498.946 263.006ZM505.724 248.502C504.36 248.502 503.255 247.43 503.255 246.107C503.255 244.784 504.36 243.712 505.724 243.712C507.088 243.712 508.194 244.784 508.194 246.107C508.194 247.43 507.088 248.502 505.724 248.502Z" fill="#E1E5F0"/>
<path d="M510.257 222.846L523.816 236.265L511.013 238.551C509.033 238.904 507.706 237.579 508.049 235.599L510.257 222.846Z" fill="#E1E5F0"/>
<path d="M593.641 453.155V426.937C593.641 411.039 593.641 395.177 593.641 379.315V354.993C593.641 354.118 578.517 353.388 560.332 353.388H556.542C538.393 353.388 523.233 354.118 523.233 354.993V453.228C523.233 454.103 538.356 454.832 556.542 454.832H560.332C578.48 454.869 593.641 454.103 593.641 453.155Z" fill="#D8DEED"/>
<path d="M486.097 542.566L486.243 542.639C487.008 543.04 487.992 542.821 488.356 542.128L531.031 463.693C531.432 462.964 531.104 462.052 530.339 461.651L530.193 461.578C529.428 461.177 528.444 461.396 528.08 462.089L517.511 481.488C510.623 494.177 503.736 506.831 496.811 519.52L485.405 540.451C485.004 541.18 485.332 542.128 486.097 542.566Z" fill="#D8DEED"/>
<path d="M592.037 460.302H565.324C549.144 460.302 532.963 460.302 516.819 460.302H492.037C491.163 460.302 490.397 461.031 490.397 461.907V462.089C490.397 462.964 491.126 463.693 492.037 463.693H592.11C592.985 463.693 593.75 462.964 593.75 462.089V461.907C593.75 461.031 592.985 460.302 592.037 460.302Z" fill="#D8DEED"/>
<path d="M605.084 540.451L593.677 519.52C586.789 506.831 579.902 494.177 572.977 481.488L562.409 462.089C562.044 461.396 561.06 461.141 560.295 461.578L560.149 461.651C559.384 462.052 559.056 463 559.457 463.693L602.132 542.128C602.496 542.821 603.48 543.076 604.246 542.639L604.391 542.566C605.157 542.128 605.485 541.18 605.084 540.451Z" fill="#D8DEED"/>
<path d="M565.753 539.357H529.064C528.811 539.357 528.573 539.405 528.36 539.491L531.603 520.304L557.417 517.113L565.753 539.357ZM519.743 539.439C519.58 539.385 519.406 539.357 519.224 539.357H461.316C461.13 539.357 460.952 539.387 460.786 539.443C460.676 539.263 460.596 539.062 460.551 538.846V538.81C460.551 538.627 460.514 538.445 460.551 538.263C460.587 538.044 460.587 537.861 460.66 537.643C461.134 536.002 462.409 534.616 463.247 533.85C463.357 533.741 463.43 533.705 463.539 533.632C465.142 532.647 466.782 531.735 468.495 530.97C471.848 529.438 479.282 526.302 481.505 525.172C484.384 523.713 488.357 521.234 492.511 516.785C492.73 516.676 493.021 516.53 493.021 516.53L518.532 515.91C518.532 515.91 518.641 516.275 518.641 516.311L519.917 538.664C519.917 538.942 519.854 539.205 519.743 539.439Z" fill="#474961"/>
<path d="M461.316 539.357H519.261C520.166 539.357 520.9 540.092 520.9 540.998C520.9 541.904 520.166 542.639 519.261 542.639H461.316C460.41 542.639 459.676 541.904 459.676 540.998C459.676 540.092 460.41 539.357 461.316 539.357ZM529.1 539.357H565.543C566.449 539.357 567.183 540.092 567.183 540.998C567.183 541.904 566.449 542.639 565.543 542.639H529.1C528.194 542.639 527.46 541.904 527.46 540.998C527.46 540.092 528.194 539.357 529.1 539.357Z" fill="#DE3190"/>
<path d="M563.54 456.244C563.539 456.785 563.539 457.332 563.539 457.885C563.539 476.468 562.883 503.07 562.664 511.903C562.628 513.058 562.774 516.217 560.587 518.222C559.712 519.003 558.765 519.343 558.182 519.547C551.731 521.687 542.694 521.721 532.781 520.905C532.125 520.838 531.068 520.464 529.647 520.056C527.497 519.411 525.93 517.508 525.711 515.232C524.691 505.244 521.884 477.963 521.666 475.551C521.374 472.494 521.119 469.028 520.9 465.087L520.184 453.661C516.395 452.858 512.785 451.978 509.367 451.055C514.047 469.849 518.613 489.496 522.65 509.017C522.832 509.872 523.16 511.867 522.212 513.756C520.463 517.212 515.908 517.07 505.011 518.424C492.183 520.063 486.826 521.737 483.911 518.281C482.927 517.176 482.599 516.001 482.489 515.466C479.829 501.463 466.637 460.736 461.498 431.518C461.498 431.447 461.462 431.411 461.462 431.34C461.057 429.013 461.127 426.723 461.598 424.574C462.614 414.561 470.96 406.65 481.272 406.434L512.449 405.783C526.078 405.54 570.204 404.118 571.507 405.367C572.81 406.616 573.345 417.081 573.491 421.53C573.491 423.164 573.491 424.832 573.527 426.431C573.527 434.252 572.179 441.413 569.92 446.94C568.353 450.764 566.385 453.788 564.162 455.734C563.956 455.914 563.749 456.084 563.54 456.244Z" fill="#A339FF"/>
<path opacity="0.176986" d="M563.476 456.292C563.482 449.872 563.518 444.345 563.585 440.718C563.658 437.592 564.204 420.402 557.134 416.835C556.515 416.529 555.895 416.257 554.656 415.815C553.672 415.476 548.57 413.675 542.01 413.947C537.747 414.117 531.333 414.389 526.048 418.669C518.723 424.648 518.906 433.991 518.978 435.52L520.114 453.646C516.317 452.84 512.699 451.956 509.275 451.03C506.908 441.529 504.513 432.245 502.142 423.307C499.955 415.076 492.266 409.731 484.139 410.765C481.114 411.157 478.089 411.549 475.064 411.941C468.324 412.833 463.207 417.866 461.636 424.23C462.806 414.381 471.078 406.647 481.272 406.434L512.449 405.783C526.078 405.54 570.204 404.118 571.507 405.367C572.81 406.616 573.345 417.081 573.491 421.53C573.491 423.164 573.491 424.832 573.527 426.431C573.527 434.252 572.179 441.413 569.92 446.94C568.353 450.764 566.385 453.788 564.162 455.734C563.935 455.932 563.707 456.118 563.476 456.292Z" fill="#444444"/>
<path d="M508.634 381.349L492.958 379.796C491.354 379.65 491.352 376.342 491.305 374.994C491.458 373.614 492.098 371.532 493.25 370.991C492.605 369.869 492.495 367.879 492.986 365.965C493.378 364.439 494.751 363.532 496.173 363.064C497.349 359.258 499.168 352.965 499.843 349.958C501.857 340.802 504.616 337.313 505.565 336.294C506.653 335.089 507.718 334.249 508.428 333.713C513.227 330.152 518.417 329.46 521.074 329.294C521.145 329.255 521.218 329.253 521.291 329.25L531.349 328.757C532.7 328.602 533.981 328.504 535.137 328.417C538.65 328.171 542.276 327.912 545.855 328.361L557.118 328.519C557.191 328.519 557.264 328.519 557.337 328.556C559.997 328.629 565.208 329.139 570.128 332.53C570.857 333.041 571.95 333.843 573.08 335.01C574.064 335.995 576.943 339.386 579.275 348.465C580.054 351.448 582.092 357.673 583.4 361.436C584.838 361.854 586.241 362.712 586.686 364.224C587.244 366.119 587.203 368.112 586.597 369.256C587.768 369.757 588.48 371.815 588.681 373.188C588.681 374.538 588.794 377.843 587.197 378.045L573.04 379.949C574.043 387.815 574.071 394.382 573.325 398.718C573.325 398.83 573.286 398.98 573.246 399.092C573.05 400.248 572.774 401.219 572.42 402.002C572.38 402.077 572.341 402.151 572.302 402.226C570.294 405.062 554.428 404.055 550.688 404.166C544.546 404.353 537.46 404.39 528.72 404.204C526.003 404.129 520.846 404.614 514.547 402.972C514.508 402.972 514.468 402.935 514.468 402.935C514.468 402.935 513.681 402.711 512.775 402.189C512.342 401.928 511.831 401.629 511.397 401.219C507.461 397.674 508.327 389.203 508.327 389.203C508.43 386.428 508.532 383.812 508.634 381.349Z" fill="#DE3190"/>
<path d="M543.931 318.071L544.327 329.687C544.327 329.942 544.217 330.197 543.999 330.307C543.051 330.89 541.703 331.547 540.026 331.911C537.001 332.604 534.414 332.094 532.956 331.656C532.665 331.583 532.446 331.291 532.446 331L532.303 324.511C530.234 325.283 530.351 325.206 530.159 325.27C527.863 325.854 525.896 325.781 525.531 325.708C524.219 325.598 522.834 324.504 521.595 322.645C519.919 320.165 518.425 316.3 517.623 311.669C517.477 311.013 517.441 310.356 517.404 309.7L517.258 303.173C517.222 301.714 517.586 300.292 518.279 298.943C518.57 298.359 518.862 297.885 519.226 297.484C519.304 297.385 519.382 297.288 519.462 297.193C522.327 293.491 528.024 293.005 530.67 293.291C530.998 293.327 532.164 293.473 533.84 293.583C534.751 293.655 535.48 293.655 535.917 293.692C541.347 293.911 543.498 293.254 546.231 294.713C546.741 294.968 547.907 295.625 548.928 296.901C551.807 300.511 551.114 305.178 550.932 306.564C550.276 310.721 547.871 313.273 547.142 314.331C546.318 315.547 544.958 317.02 543.931 318.071ZM493.578 396.412L496.177 380.135L508.612 381.102L508.476 392.235C513.229 391.702 517.931 391.641 520.307 392.67C520.375 392.699 520.442 392.729 520.508 392.76C531.765 390.629 551.043 387.102 562.865 385.623L561.674 381.416L586.156 378.124C587.263 390.179 586.005 404.767 573.844 406.262C559.808 407.988 536.572 407.988 504.136 406.262H488.113C487.887 401.577 490.971 398.884 493.578 396.412Z" fill="#DB9E75"/>
<path d="M550.231 309.211C548.523 309.213 546.894 309.294 545.274 309.385C545.517 308.085 545.323 306.661 544.472 305.474C543.306 303.833 541.119 302.921 539.37 303.505C538.386 303.833 537.73 304.599 537.657 304.672C536.673 305.911 536.455 307.224 536.455 307.224L536.271 309.033C533.343 305.999 529.613 302.163 526.829 299.234C525.187 299.684 522.478 300.134 519.4 299.48C518.979 299.386 518.582 299.246 518.206 299.087C518.23 299.039 518.254 298.99 518.279 298.942C518.57 298.359 518.862 297.885 519.226 297.484C519.304 297.384 519.382 297.287 519.462 297.192C522.327 293.49 528.024 293.004 530.669 293.29C530.997 293.327 532.164 293.473 533.84 293.582C534.751 293.655 535.48 293.655 535.917 293.691C541.347 293.91 543.497 293.254 546.231 294.712C546.741 294.968 547.907 295.624 548.927 296.9C551.806 300.51 551.114 305.178 550.932 306.563C550.779 307.532 550.531 308.414 550.231 309.211ZM518.707 307.735C518.342 307.662 518.233 307.188 518.488 306.932C518.816 306.641 519.399 306.349 520.128 306.349C521.622 306.349 523.226 307.334 521.549 307.771C520.565 308.063 519.399 307.917 518.707 307.735ZM526.214 307.99C525.85 307.917 525.74 307.443 526.032 307.188C526.36 306.896 526.943 306.604 527.708 306.604C529.202 306.604 530.806 307.625 529.13 308.026C528.073 308.355 526.943 308.136 526.214 307.99Z" fill="#482D1F"/>
<path opacity="0.2" d="M493.549 396.5L496.177 380.134L508.612 381.101L508.475 392.295C501.999 393.022 495.431 394.626 494.527 395.551C494.214 395.866 493.885 396.181 493.549 396.5Z" fill="#8C2A00"/>
<path d="M521.549 310.324C521.513 310.944 521.404 311.965 521.039 312.329C520.42 312.876 519.618 311.053 520.092 309.923C520.274 309.449 520.529 309.376 520.821 309.412C521.258 309.485 521.549 309.886 521.549 310.324ZM528.073 310.214C528.109 310.834 528.109 311.855 527.745 312.293C527.198 312.913 526.178 311.162 526.542 309.996C526.688 309.522 526.943 309.412 527.235 309.412C527.672 309.412 528.036 309.777 528.073 310.214Z" fill="#482D1F"/>
<path d="M525.084 317.726C525.339 317.653 525.959 317.471 526.068 317.07C526.068 316.997 526.105 316.887 526.068 316.814C525.923 316.559 525.485 316.705 524.829 316.742C523.663 316.814 522.716 316.705 522.716 316.705C522.716 316.705 522.971 317.434 523.153 317.653C523.554 318.2 524.72 317.835 525.084 317.726Z" fill="#482D1F"/>
<path d="M522.063 314.247C521.994 314.659 522.313 315.063 522.729 315.132C522.819 315.14 522.819 315.14 522.878 315.145C523.493 315.192 523.878 315.21 524.538 315.21C524.739 315.21 524.902 315.046 524.902 314.845C524.902 314.644 524.739 314.48 524.538 314.48C523.899 314.48 523.532 314.464 522.934 314.418L522.816 314.409C522.815 314.407 522.782 314.365 522.783 314.358L523.332 310.447L523.335 310.396V308.245C523.335 308.044 523.172 307.88 522.971 307.88C522.769 307.88 522.606 308.044 522.606 308.245V310.371L522.063 314.247Z" fill="#482D1F"/>
<path d="M545.278 307.463C545.445 308.531 545.253 309.694 544.768 310.63C544.179 311.809 543.35 312.451 542.279 312.946C542.096 313.031 542.016 313.247 542.101 313.43C542.185 313.613 542.401 313.693 542.584 313.608C543.055 313.391 543.429 313.181 543.862 312.845C544.499 312.351 545.033 311.731 545.418 310.961C545.971 309.893 546.189 308.573 545.998 307.35C545.967 307.151 545.781 307.015 545.582 307.046C545.383 307.077 545.247 307.264 545.278 307.463Z" fill="#482D1F"/>
<path d="M521.722 310.401C521.686 311.021 521.577 312.042 521.212 312.407C520.593 312.954 519.791 311.13 520.265 310C520.447 309.526 520.702 309.453 520.993 309.49C521.431 309.562 521.722 309.964 521.722 310.401ZM528.246 310.292C528.282 310.912 528.282 311.933 527.918 312.37C527.371 312.99 526.351 311.24 526.715 310.073C526.861 309.599 527.116 309.49 527.407 309.49C527.845 309.49 528.209 309.854 528.246 310.292Z" fill="#482D1F"/>
<path d="M525.257 317.803C525.512 317.73 526.132 317.548 526.241 317.147C526.241 317.074 526.278 316.965 526.241 316.892C526.096 316.636 525.658 316.782 525.002 316.819C523.836 316.892 522.889 316.782 522.889 316.782C522.889 316.782 523.144 317.512 523.326 317.73C523.727 318.277 524.893 317.913 525.257 317.803Z" fill="#482D1F"/>
<path d="M545.451 307.54C545.618 308.609 545.426 309.772 544.941 310.707C544.352 311.886 543.523 312.529 542.452 313.024C542.269 313.108 542.189 313.325 542.273 313.507C542.358 313.69 542.574 313.77 542.757 313.686C543.228 313.468 543.602 313.258 544.035 312.923C544.672 312.428 545.206 311.808 545.591 311.038C546.144 309.97 546.362 308.65 546.171 307.428C546.14 307.229 545.954 307.092 545.755 307.124C545.556 307.155 545.42 307.341 545.451 307.54Z" fill="#482D1F"/>
<path d="M562.203 381.524C562.291 381.812 562.129 382.119 561.841 382.207C561.552 382.296 561.246 382.134 561.158 381.845C560.119 378.468 556.803 368.232 556.102 366.341C555.997 366.058 556.141 365.743 556.424 365.638C556.707 365.533 557.022 365.677 557.127 365.961C557.837 367.877 561.158 378.127 562.203 381.524ZM512.435 350.895C511.524 359.323 510.796 366.046 509.156 381.16C509.123 381.461 508.853 381.678 508.553 381.645C508.253 381.612 508.036 381.342 508.069 381.042C509.709 365.928 510.437 359.205 511.349 350.777C511.381 350.477 511.651 350.259 511.951 350.292C512.251 350.324 512.468 350.594 512.435 350.895Z" fill="#482D1F"/>
<path d="M532.312 324.639L535.297 323.308L532.383 328.116L532.312 324.639Z" fill="#482D1F"/>
<path d="M386.097 542.128L385.951 542.201C385.186 542.602 384.202 542.383 383.838 541.69L341.163 463.256C340.762 462.526 341.09 461.615 341.855 461.214L342.001 461.141C342.766 460.739 343.75 460.958 344.115 461.651L354.683 481.05C361.571 493.74 368.459 506.393 375.383 519.083L386.79 540.013C387.19 540.742 386.862 541.69 386.097 542.128Z" fill="#D8DEED"/>
<path d="M281.469 459.865H308.182C324.362 459.865 340.543 459.865 356.687 459.865H381.469C382.343 459.865 383.109 460.594 383.109 461.469V461.651C383.109 462.526 382.38 463.256 381.469 463.256H281.396C280.521 463.256 279.756 462.526 279.756 461.651V461.469C279.756 460.594 280.521 459.865 281.469 459.865Z" fill="#D8DEED"/>
<path d="M267.11 540.013L278.517 519.083C285.405 506.393 292.293 493.74 299.217 481.05L309.785 461.651C310.15 460.958 311.134 460.703 311.899 461.141L312.045 461.214C312.81 461.615 313.138 462.563 312.737 463.256L270.062 541.691C269.698 542.383 268.714 542.639 267.949 542.201L267.803 542.128C267.037 541.691 266.709 540.743 267.11 540.013Z" fill="#D8DEED"/>
<path d="M270.499 356.16L273.962 384.164C276.075 401.12 278.152 418.076 280.266 434.996L283.473 460.958C283.583 461.87 282.963 462.782 282.088 462.891L281.906 462.928C281.032 463.037 280.23 462.381 280.084 461.396L267.074 356.524C266.964 355.613 267.584 354.701 268.459 354.592L268.641 354.555C269.552 354.446 270.39 355.175 270.499 356.16Z" fill="#D8DEED"/>
<path d="M332.025 539.323H351.731C352.642 539.323 353.408 540.073 353.408 540.964C353.408 541.856 352.642 542.605 351.731 542.605H331.505C330.594 542.605 329.865 541.892 329.829 540.964C329.829 540.073 330.594 539.323 331.505 539.323H332.025L332.417 539.615C333.145 540.162 333.291 541.22 332.744 541.949C332.198 542.678 331.141 542.824 330.412 542.277L293.823 515.002C293.094 514.455 292.949 513.397 293.495 512.668C294.042 511.939 295.099 511.793 295.828 512.34L332.025 539.323ZM428.298 542.567H370.427C369.516 542.567 368.787 541.838 368.787 540.926C368.787 540.015 369.516 539.285 370.427 539.285H428.335C429.246 539.285 429.975 540.015 429.975 540.926C429.938 541.838 429.209 542.567 428.298 542.567Z" fill="#FFCB3D"/>
<path d="M295.834 512.37L309.202 493.412L331.141 509.347C332.344 513.431 333.583 517.515 334.822 521.636C335.478 523.787 336.134 525.902 336.79 528.017C338.83 528.819 340.58 529.548 341.819 530.095C344.188 531.116 346.192 532.064 348.378 533.486C348.378 533.486 350.274 534.653 351.33 536.331C351.658 536.878 351.95 537.498 352.132 538.154C352.205 538.446 352.205 538.737 352.241 538.993C352.235 539.122 352.217 539.259 352.19 539.398C352.034 539.35 351.868 539.324 351.698 539.324H331.991L295.834 512.37ZM428.754 539.348C428.611 539.307 428.459 539.285 428.301 539.285H370.393C370.164 539.285 369.947 539.331 369.75 539.415C369.646 539.187 369.588 538.934 369.588 538.666L371.186 517.443C371.137 516.714 379.375 516.362 395.9 516.386C396.301 516.386 396.666 516.495 396.994 516.75C401.148 521.199 405.12 523.679 407.999 525.137C410.222 526.268 417.657 529.404 421.01 530.935C422.722 531.701 424.362 532.612 425.966 533.597C426.075 533.67 426.148 533.706 426.257 533.816C427.096 534.582 428.371 535.967 428.845 537.608C428.918 537.827 428.918 538.009 428.954 538.228C428.991 538.41 428.954 538.593 428.954 538.775V538.811C428.914 539.004 428.846 539.184 428.754 539.348Z" fill="#474961"/>
<path d="M326.472 456.246L311.8 458.506C299.412 460.501 285.461 451.016 283.651 437.436C283.474 436.246 283.403 435.056 283.403 433.866C283.403 422.596 284.129 410.559 295.682 408.036C307.234 405.513 383.816 407.336 392.661 407.336C401.506 407.336 404.694 410.821 407.912 415.953C411.131 421.085 410.161 429.865 409.345 435.395C407.889 445.37 407.144 453 406.86 461.155C406.789 462.87 406.682 464.69 406.576 466.72C405.937 478.83 405.369 483.835 404.304 499.55C403.914 505.78 403.594 511.17 403.346 515.265C403.239 517.295 401.5 518.905 399.441 518.905H397.347L368.154 519.01C365.954 519.01 364.143 517.225 364.214 515.055L364.605 500.53L364.853 491.85C364.992 486.975 365.131 481.774 365.27 476.484C361.953 480.686 358.931 484.549 356.202 488.072C353.992 490.975 351.461 494.311 348.306 498.517C344.115 504.096 340.58 508.909 337.883 512.629C336.702 514.225 334.543 514.759 332.679 514.01C332.392 513.9 332.112 513.76 331.843 513.588L329.839 512.276L315.99 503.415L304.729 496.195C302.579 494.809 301.96 492.038 303.344 490.032L312.492 476.686L317.958 468.701C319.89 465.869 322.728 461.717 326.472 456.246Z" fill="#474BFF"/>
<path opacity="0.176986" d="M365.153 476.621C358.231 485.393 352.594 492.68 348.242 498.48C344.051 504.06 340.516 508.873 337.82 512.592C336.471 514.415 333.847 514.853 331.843 513.577L329.839 512.264L315.99 503.403L304.729 496.183C302.579 494.798 301.96 492.026 303.344 490.021L312.492 476.675L317.958 468.689C319.9 465.842 322.758 461.661 326.532 456.146L365.842 450.09V451.107L365.594 459.787C365.447 465.314 365.3 471.019 365.153 476.621L365.153 476.621Z" fill="#444444"/>
<path d="M371.276 441.595C369.488 444.302 368.952 445.04 368.407 445.65C367.804 446.325 367.234 447.11 365.409 449.872C365.187 450.208 365.279 450.661 365.615 450.883C365.951 451.105 366.403 451.013 366.625 450.677C368.414 447.969 368.95 447.231 369.494 446.622C370.098 445.946 370.667 445.161 372.492 442.399C372.714 442.063 372.622 441.611 372.286 441.389C371.951 441.167 371.498 441.259 371.276 441.595Z" fill="#482D1F"/>
<path d="M343.787 364.656C349.144 360.645 362.992 349.742 362.992 349.742C367.511 353.826 356.651 361.155 356.651 361.155" fill="#482D1F"/>
<mask id="mask1_1_1070" style="mask-type:alpha" maskUnits="userSpaceOnUse" x="282" y="331" width="61" height="80">
<path d="M324.612 333.136C325.753 333.496 326.904 333.988 328.043 334.646C332.38 337.162 334.457 340.407 338.284 347.007C341.491 352.477 344.333 357.399 342.292 360.681C340.936 362.86 337.902 363.429 335.86 363.589L335.769 372.058V372.423L335.587 390.582C335.292 396.45 334.927 401.223 334.494 404.9C333.843 410.416 292.219 412.69 292.219 406.363C291.235 403.956 290.908 396.161 290.944 393.39L291.242 366.554C290.771 366.598 290.296 366.651 289.814 366.714C287.773 366.714 284.603 366.327 283.072 364.006C280.849 360.679 283.4 355.301 286.243 349.266C289.669 342.031 291.143 337.904 295.718 335.532C297.708 334.501 299.362 333.991 300.683 334.004C303.393 332.408 306.53 331.522 309.858 331.583L317.876 331.728C320.262 331.754 322.534 332.252 324.612 333.136Z" fill="white"/>
</mask>
<g mask="url(#mask1_1_1070)">
<path d="M324.612 333.136C325.753 333.496 326.904 333.988 328.043 334.646C332.38 337.162 334.457 340.407 338.284 347.007C341.491 352.477 344.333 357.399 342.292 360.681C340.936 362.86 337.902 363.429 335.86 363.589L335.769 372.058V372.423L335.587 390.582C335.292 396.45 334.927 401.223 334.494 404.9C333.843 410.416 292.219 412.69 292.219 406.363C291.235 403.956 290.908 396.161 290.944 393.39L291.242 366.554C290.771 366.598 290.296 366.651 289.814 366.714C287.773 366.714 284.603 366.327 283.072 364.006C280.849 360.679 283.4 355.301 286.243 349.266C289.669 342.031 291.143 337.904 295.718 335.532C297.708 334.501 299.362 333.991 300.683 334.004C303.393 332.408 306.53 331.522 309.858 331.583L317.876 331.728C320.262 331.754 322.534 332.252 324.612 333.136Z" fill="#FFCB3D"/>
</g>
<path opacity="0.2" d="M315.837 331.819C319.293 331.503 323.96 332.29 328.043 334.646C332.38 337.162 334.514 340.551 338.341 347.151C341.548 352.621 344.333 357.399 342.293 360.681C340.951 362.837 337.966 363.417 335.926 363.584L336.052 351.876V351.22C336.198 340.645 328.107 331.966 317.94 331.857L315.837 331.819Z" fill="#8C2A00"/>
<path d="M373.873 369.108L373.855 372.364C373.872 373.737 372.485 374.677 371.208 374.155L368.205 372.922L354.06 351.765C353.475 350.884 353.726 349.669 354.607 349.084L357.085 347.411C357.965 346.826 359.179 347.077 359.764 347.958L373.873 369.108Z" fill="#FFCB3D"/>
<path d="M353.244 359.402L363.228 353.325C364.145 352.782 365.33 353.174 365.857 354.219L366.342 355.142C366.721 355.919 366.64 356.804 366.229 357.459C366.968 357.402 367.677 357.839 368.037 358.655L368.524 359.605C368.978 360.56 368.776 361.674 368.136 362.352C369.025 361.949 370.099 362.355 370.597 363.371L371.081 364.291C371.611 365.373 371.242 366.667 370.327 367.249L364.397 370.847C356.911 376.21 349.895 380.976 343.348 385.145L343.706 388.069C351.671 389.271 362.634 390.927 376.596 393.038L376.748 393.061C379.302 392.843 381.529 393.226 383.05 393.541C386.864 393.158 390.641 392.74 394.419 392.36C397.477 391.468 404.339 390.012 404.787 394.375C404.787 394.375 401.842 395.333 397.855 396.602C392.215 398.397 384.455 400.85 380.073 402.25L379.917 402.255L361.862 407.099L332.726 407.037C332.694 406.919 332.662 406.802 332.63 406.685C333.722 406.132 334.379 405.526 334.465 404.874C334.952 401.2 335.317 396.422 335.56 390.542L335.565 389.95C326.52 395.352 318.484 399.467 311.458 402.296C307.304 403.973 303.222 405.468 299.25 406.781C289.993 408.604 286.061 403.382 285.004 402.324C283.765 401.084 281.25 397.62 285.806 377.127C286.671 373.238 287.577 369.72 288.437 366.637C288.917 366.681 289.374 366.697 289.785 366.697C298.647 365.548 305.5 367.598 314.073 366.909C313.02 369.597 311.651 372.821 309.967 376.58C318.422 373.681 327.032 370.43 335.798 366.829L335.833 363.521C337.222 363.412 339.071 363.114 340.539 362.248C340.541 362.264 340.544 362.279 340.546 362.295L340.844 364.724C344.863 363.023 348.913 361.249 352.996 359.403C353.051 359.375 353.133 359.375 353.244 359.402ZM309.134 331.379C309.929 329.289 310.71 327.442 311.541 325.242C311.539 325.241 311.536 325.239 311.534 325.238L312.301 318.88C312.228 318.479 311.899 318.638 311.534 318.529C310.587 318.274 309.765 317.482 309.109 316.753C307.906 315.367 307.708 313.351 308.291 311.491C309.02 309.704 310.915 308.355 312.664 308.501C313.32 308.574 313.94 308.829 314.523 309.194L314.559 309.23C314.741 309.413 314.997 309.449 315.252 309.486C315.871 309.486 316.381 309.048 316.418 308.428L316.746 298.911C316.746 298.291 317.22 297.853 317.839 297.853C319.188 297.853 320.499 297.78 321.848 297.489C322.03 297.489 322.176 297.452 322.322 297.452C323.634 297.306 330.667 296.869 334.457 302.083C334.785 302.594 335.113 303.104 335.368 303.615C336.024 304.928 336.316 306.386 336.206 307.918L335.806 314.554C335.733 315.21 335.66 315.867 335.514 316.56C333.765 324.764 330.048 330.453 326.913 330.635C325.31 330.671 323.706 330.489 322.139 330.015C321.945 329.918 322.068 329.994 319.878 329.108L319.418 331.592C321.471 331.982 323.588 332.609 325.727 333.549C325.035 334.46 324.29 335.302 323.524 335.886C315.215 342.376 296.179 335.377 299.466 334.038C301.078 333.382 304.584 332.001 309.134 331.379Z" fill="#BF865F"/>
<path opacity="0.2" d="M335.791 389.718C338.237 388.256 340.758 386.699 343.352 385.048L343.731 388.094C349.032 388.911 360.022 390.57 376.702 393.07C376.708 393.07 376.713 393.07 376.718 393.069C379.335 392.822 381.618 393.262 383.168 393.582C386.983 393.2 390.641 392.74 394.419 392.359C397.476 391.468 404.339 390.011 404.787 394.374C404.417 394.504 402.066 395.225 398.079 396.494C392.439 398.288 384.679 400.742 380.297 402.141L380.141 402.146L362.086 406.991L332.95 406.929C332.917 406.811 332.885 406.693 332.854 406.577C333.946 406.024 334.603 405.417 334.689 404.766C335.176 401.091 335.541 396.314 335.783 390.433L335.791 389.718ZM336.022 366.62L336.057 363.412C337.372 363.309 339.099 363.036 340.525 362.273L340.816 364.62C339.213 365.298 337.615 365.965 336.022 366.62Z" fill="#8C2A00"/>
<path d="M420.499 384.485C420.791 385.616 420.135 386.746 419.005 387.038L368.422 400.675C367.293 400.967 366.163 400.311 365.871 399.18C365.58 398.05 366.236 396.92 367.365 396.628L417.948 382.99C419.042 382.735 420.208 383.391 420.499 384.485Z" fill="#474961"/>
<path d="M300.616 308.321C300.668 306.193 301.141 303.364 303.007 301.025C303.772 300.041 304.792 299.312 305.886 298.765C308.801 297.306 311.024 298.035 316.782 297.889C317.948 297.889 319.661 297.707 321.848 297.488C323.342 297.303 332.336 296.154 334.457 302.083C333.709 301.937 331.943 301.901 330.303 302.302C323.233 304.052 321.155 316.304 317.912 315.793C317.881 315.79 317.848 315.784 317.814 315.777L317.839 315.757L316.272 311.454C315.908 310.579 315.288 309.886 314.559 309.303C313.976 308.938 313.357 308.683 312.701 308.61C310.951 308.464 309.056 309.813 308.327 311.6C307.635 313.387 307.963 315.392 309.239 316.778C310.04 317.69 311.134 318.31 312.336 318.528L312.427 318.527C312.196 321.255 311.851 324.92 311.509 325.422C310.964 326.852 310.447 328.101 309.932 329.379C309.198 329.319 308.546 329.257 308.036 329.212C306.432 329.067 304.064 328.884 301.075 328.702C301.075 328.702 300.857 328.702 300.674 328.665C299.727 328.52 298.816 328.374 297.905 327.9C297.905 327.9 297.613 327.79 297.358 327.571C292.22 323.342 291.09 317.289 293.276 313.897C294.843 311.527 297.905 310.616 298.342 310.47C298.925 310.287 299.508 310.214 300.018 310.178C300.218 309.58 300.417 308.952 300.616 308.321ZM330.667 312.621C329.938 312.803 328.736 312.986 327.752 312.73C326.039 312.366 327.642 311.345 329.209 311.272C329.938 311.235 330.521 311.527 330.886 311.819C331.141 312.074 331.032 312.548 330.667 312.621ZM336.862 312.475C336.134 312.73 335.004 313.059 333.947 312.876C332.161 312.621 333.692 311.454 335.222 311.272C336.024 311.162 336.571 311.418 336.972 311.673C337.3 311.892 337.227 312.366 336.862 312.475Z" fill="#482D1F"/>
<path d="M334.166 317.07C333.838 316.632 333.947 315.648 334.056 314.991C334.093 314.517 334.53 314.226 334.931 314.226C335.186 314.262 335.514 314.408 335.587 314.918C335.842 316.122 334.603 317.799 334.166 317.07ZM328.152 317.106C327.788 316.669 327.934 315.648 328.043 315.028C328.08 314.554 328.517 314.262 328.918 314.262C329.173 314.299 329.501 314.444 329.574 314.955C329.829 316.158 328.626 317.836 328.152 317.106Z" fill="#482D1F"/>
<path d="M333.798 314.311C333.825 314.111 333.685 313.928 333.486 313.901C333.286 313.874 333.103 314.013 333.076 314.213L332.784 316.364L332.781 316.41L332.745 320.274C332.731 320.318 332.696 320.346 332.649 320.351C332.192 320.302 331.642 320.303 330.997 320.353C330.796 320.368 330.646 320.543 330.661 320.744C330.677 320.945 330.852 321.095 331.053 321.08C331.668 321.033 332.183 321.033 332.595 321.079L332.635 321.081C333.061 321.081 333.401 320.778 333.468 320.375L333.473 320.319L333.509 316.44L333.798 314.311Z" fill="#482D1F"/>
<path d="M330.594 323.889C330.339 323.852 329.683 323.706 329.537 323.305C329.537 323.232 329.464 323.123 329.501 323.05C329.61 322.868 330.74 322.868 330.74 322.868C332.234 322.904 332.599 322.831 332.708 323.014C332.744 323.123 332.744 323.269 332.489 323.597C332.161 324.217 330.959 323.998 330.594 323.889Z" fill="#482D1F"/>
<path d="M309.739 376.083C310.013 375.957 310.338 376.077 310.464 376.351C310.59 376.625 310.47 376.95 310.196 377.077L298.644 382.4C298.369 382.527 298.045 382.407 297.918 382.132C297.792 381.858 297.912 381.533 298.186 381.407L309.739 376.083ZM316.048 359.259C315.948 358.974 316.097 358.662 316.382 358.561C316.666 358.461 316.979 358.61 317.079 358.895C317.105 358.967 317.147 359.097 317.201 359.275C317.291 359.569 317.38 359.895 317.463 360.246C317.689 361.203 317.83 362.16 317.843 363.062C317.884 365.857 316.677 367.646 313.896 367.61C313.594 367.606 313.353 367.357 313.357 367.055C313.361 366.753 313.609 366.512 313.911 366.516C315.963 366.543 316.783 365.328 316.75 363.078C316.738 362.265 316.608 361.384 316.399 360.498C316.321 360.171 316.238 359.866 316.155 359.593C316.106 359.431 316.069 359.317 316.048 359.259Z" fill="#482D1F"/>
<path d="M319.953 329.066L317.001 327.863L318.75 334.463L319.953 329.066Z" fill="#482D1F"/>
<path d="M575.93 404.803H284.02C282.611 404.803 281.469 405.946 281.469 407.355C281.469 408.765 282.611 409.908 284.02 409.908H575.93C577.338 409.908 578.481 408.765 578.481 407.355C578.481 405.946 577.338 404.803 575.93 404.803Z" fill="#D8DEED"/>
<path d="M449.479 296.178H346.031C341.969 296.178 338.651 292.633 338.651 288.293V215.484C338.651 211.144 341.969 207.6 346.031 207.6H449.479C453.541 207.6 456.858 211.144 456.858 215.484V288.257C456.858 292.633 453.541 296.178 449.479 296.178Z" fill="#F2F6FB"/>
<path d="M372.661 256.772C378.08 256.772 382.472 252.454 382.472 247.126C382.472 241.799 378.08 237.481 372.661 237.481C367.242 237.481 362.849 241.799 362.849 247.126C362.849 252.454 367.242 256.772 372.661 256.772Z" fill="#FFCB3D"/>
<path d="M396.956 256.772C402.375 256.772 406.768 252.454 406.768 247.126C406.768 241.799 402.375 237.481 396.956 237.481C391.537 237.481 387.145 241.799 387.145 247.126C387.145 252.454 391.537 256.772 396.956 256.772Z" fill="#3ABF7C"/>
<path d="M421.252 256.772C426.67 256.772 431.063 252.454 431.063 247.126C431.063 241.799 426.67 237.481 421.252 237.481C415.833 237.481 411.44 241.799 411.44 247.126C411.44 252.454 415.833 256.772 421.252 256.772Z" fill="#A339FF"/>
<path d="M430.862 272.389H364.919C363.905 272.389 363.083 273.212 363.083 274.226C363.083 275.241 363.905 276.064 364.919 276.064H430.862C431.876 276.064 432.699 275.241 432.699 274.226C432.699 273.212 431.876 272.389 430.862 272.389Z" fill="#E1E5F0"/>
<path d="M430.748 265.04H365.034C363.956 265.04 363.083 265.914 363.083 266.992C363.083 268.07 363.956 268.944 365.034 268.944H430.748C431.825 268.944 432.699 268.07 432.699 266.992C432.699 265.914 431.825 265.04 430.748 265.04Z" fill="#E1E5F0"/>
<path d="M338.32 212.218C338.32 209.428 340.58 207.166 343.371 207.166H451.709C454.499 207.166 456.76 209.427 456.76 212.218V217.271H338.32V212.218Z" fill="#E1E5F0"/>
<path d="M345.212 214.515C346.437 214.515 347.431 213.538 347.431 212.333C347.431 211.128 346.437 210.151 345.212 210.151C343.986 210.151 342.992 211.128 342.992 212.333C342.992 213.538 343.986 214.515 345.212 214.515Z" fill="#FF5645"/>
<path d="M352.454 214.515C353.679 214.515 354.673 213.538 354.673 212.333C354.673 211.128 353.679 210.151 352.454 210.151C351.228 210.151 350.234 211.128 350.234 212.333C350.234 213.538 351.228 214.515 352.454 214.515Z" fill="#FFCB3D"/>
<path d="M359.929 214.515C361.155 214.515 362.148 213.538 362.148 212.333C362.148 211.128 361.155 210.151 359.929 210.151C358.703 210.151 357.71 211.128 357.71 212.333C357.71 213.538 358.703 214.515 359.929 214.515Z" fill="#3ABF7C"/>
<path d="M459.511 403.53C459.874 404.172 460.563 404.606 461.352 404.606H513.721C514.887 404.606 515.798 403.658 515.798 402.491C515.798 401.325 514.851 400.377 513.721 400.377H462.782L445.026 352.572C444.625 351.478 443.422 350.931 442.329 351.332C441.235 351.733 440.689 352.936 441.09 354.03L459.348 403.184C459.393 403.307 459.447 403.422 459.511 403.53Z" fill="#474961"/>
<defs>
<filter id="filter0_d_1_1070" x="0" y="24" width="897" height="658.778" filterUnits="userSpaceOnUse" color-interpolation-filters="sRGB">
<feFlood flood-opacity="0" result="BackgroundImageFix"/>
<feColorMatrix in="SourceAlpha" type="matrix" values="0 0 0 0 0 0 0 0 0 0 0 0 0 0 0 0 0 0 127 0" result="hardAlpha"/>
<feOffset dy="60"/>
<feGaussianBlur stdDeviation="40"/>
<feColorMatrix type="matrix" values="0 0 0 0 0.0695088 0 0 0 0 0.111261 0 0 0 0 0.226081 0 0 0 0.135162 0"/>
<feBlend mode="normal" in2="BackgroundImageFix" result="effect1_dropShadow_1_1070"/>
<feBlend mode="normal" in="SourceGraphic" in2="effect1_dropShadow_1_1070" result="shape"/>
</filter>
<filter id="filter1_d_1_1070" x="6" y="10" width="885" height="218.25" filterUnits="userSpaceOnUse" color-interpolation-filters="sRGB">
<feFlood flood-opacity="0" result="BackgroundImageFix"/>
<feColorMatrix in="SourceAlpha" type="matrix" values="0 0 0 0 0 0 0 0 0 0 0 0 0 0 0 0 0 0 127 0" result="hardAlpha"/>
<feOffset dy="40"/>
<feGaussianBlur stdDeviation="37"/>
<feColorMatrix type="matrix" values="0 0 0 0 0.838655 0 0 0 0 0.838655 0 0 0 0 0.838655 0 0 0 0.156305 0"/>
<feBlend mode="normal" in2="BackgroundImageFix" result="effect1_dropShadow_1_1070"/>
<feBlend mode="normal" in="SourceGraphic" in2="effect1_dropShadow_1_1070" result="shape"/>
</filter>
<filter id="filter2_d_1_1070" x="6" y="45.1252" width="885" height="183.125" filterUnits="userSpaceOnUse" color-interpolation-filters="sRGB">
<feFlood flood-opacity="0" result="BackgroundImageFix"/>
<feColorMatrix in="SourceAlpha" type="matrix" values="0 0 0 0 0 0 0 0 0 0 0 0 0 0 0 0 0 0 127 0" result="hardAlpha"/>
<feOffset dy="40"/>
<feGaussianBlur stdDeviation="37"/>
<feColorMatrix type="matrix" values="0 0 0 0 0.838655 0 0 0 0 0.838655 0 0 0 0 0.838655 0 0 0 0.156305 0"/>
<feBlend mode="normal" in2="BackgroundImageFix" result="effect1_dropShadow_1_1070"/>
<feBlend mode="normal" in="SourceGraphic" in2="effect1_dropShadow_1_1070" result="shape"/>
</filter>
<filter id="filter3_d_1_1070" x="555.392" y="99.584" width="305.094" height="497.324" filterUnits="userSpaceOnUse" color-interpolation-filters="sRGB">
<feFlood flood-opacity="0" result="BackgroundImageFix"/>
<feColorMatrix in="SourceAlpha" type="matrix" values="0 0 0 0 0 0 0 0 0 0 0 0 0 0 0 0 0 0 127 0" result="hardAlpha"/>
<feOffset dy="2"/>
<feGaussianBlur stdDeviation="40"/>
<feColorMatrix type="matrix" values="0 0 0 0 0.832116 0 0 0 0 0.832116 0 0 0 0 0.832116 0 0 0 0.197033 0"/>
<feBlend mode="normal" in2="BackgroundImageFix" result="effect1_dropShadow_1_1070"/>
<feBlend mode="normal" in="SourceGraphic" in2="effect1_dropShadow_1_1070" result="shape"/>
</filter>
<filter id="filter4_d_1_1070" x="192" y="0" width="104" height="104" filterUnits="userSpaceOnUse" color-interpolation-filters="sRGB">
<feFlood flood-opacity="0" result="BackgroundImageFix"/>
<feColorMatrix in="SourceAlpha" type="matrix" values="0 0 0 0 0 0 0 0 0 0 0 0 0 0 0 0 0 0 127 0" result="hardAlpha"/>
<feOffset/>
<feGaussianBlur stdDeviation="10"/>
<feColorMatrix type="matrix" values="0 0 0 0 0.725 0 0 0 0 0.685729 0 0 0 0 0.685729 0 0 0 0.25 0"/>
<feBlend mode="normal" in2="BackgroundImageFix" result="effect1_dropShadow_1_1070"/>
<feBlend mode="normal" in="SourceGraphic" in2="effect1_dropShadow_1_1070" result="shape"/>
</filter>
<linearGradient id="paint0_linear_1_1070" x1="238.004" y1="60.75" x2="246.645" y2="72.2652" gradientUnits="userSpaceOnUse">
<stop stop-color="#FEB692"/>
<stop offset="1" stop-color="#EA5455"/>
</linearGradient>
<linearGradient id="paint1_linear_1_1070" x1="228.25" y1="38.25" x2="231.016" y2="51.1573" gradientUnits="userSpaceOnUse">
<stop stop-color="#FEB692"/>
<stop offset="1" stop-color="#EA5455"/>
</linearGradient>
<linearGradient id="paint2_linear_1_1070" x1="228.25" y1="38.25" x2="231.016" y2="51.1573" gradientUnits="userSpaceOnUse">
<stop stop-color="#FEB692"/>
<stop offset="1" stop-color="#EA5455"/>
</linearGradient>
<linearGradient id="paint3_linear_1_1070" x1="228.25" y1="56.25" x2="231.016" y2="69.1573" gradientUnits="userSpaceOnUse">
<stop stop-color="#FEB692"/>
<stop offset="1" stop-color="#EA5455"/>
</linearGradient>
<linearGradient id="paint4_linear_1_1070" x1="228.25" y1="56.25" x2="231.016" y2="69.1573" gradientUnits="userSpaceOnUse">
<stop stop-color="#FEB692"/>
<stop offset="1" stop-color="#EA5455"/>
</linearGradient>
<linearGradient id="paint5_linear_1_1070" x1="230.5" y1="42.75" x2="244.21" y2="66.2526" gradientUnits="userSpaceOnUse">
<stop stop-color="#CE9FFC"/>
<stop offset="1" stop-color="#7367F0"/>
</linearGradient>
<linearGradient id="paint6_linear_1_1070" x1="230.5" y1="42.75" x2="244.21" y2="66.2526" gradientUnits="userSpaceOnUse">
<stop stop-color="#CE9FFC"/>
<stop offset="1" stop-color="#7367F0"/>
</linearGradient>
<linearGradient id="paint7_linear_1_1070" x1="628.651" y1="520.897" x2="673.646" y2="578.113" gradientUnits="userSpaceOnUse">
<stop stop-color="#FAD961"/>
<stop offset="1" stop-color="#F76B1C"/>
</linearGradient>
</defs>
</svg>
