<svg width="36" height="34" viewBox="0 0 36 34" fill="none" xmlns="http://www.w3.org/2000/svg">
<g id="25 - Bag">
<g id="Group 13">
<path id="Rectangle 27 (Stroke)" fill-rule="evenodd" clip-rule="evenodd" d="M11.319 5.78546C11.319 5.21976 11.8139 4.76117 12.4244 4.76117H23.4784C24.0889 4.76117 24.5838 5.21976 24.5838 5.78546V9.88263C24.5838 10.4483 24.0889 10.9069 23.4784 10.9069H12.4244C11.8139 10.9069 11.319 10.4483 11.319 9.88263V5.78546ZM13.5298 6.80975V8.85834H22.373V6.80975H13.5298Z" fill="#777777"/>
<g id="Rectangle 25 (Stroke)">
<path fill-rule="evenodd" clip-rule="evenodd" d="M2.47571 9.88263C2.47571 9.31693 2.97061 8.85834 3.58111 8.85834H32.3217C32.9322 8.85834 33.4271 9.31693 33.4271 9.88263V28.3199C33.4271 28.8856 32.9322 29.3442 32.3217 29.3442H3.58111C2.97061 29.3442 2.47571 28.8856 2.47571 28.3199V9.88263ZM4.68652 10.9069V27.2956H31.2162V10.9069H4.68652Z" fill="#777777"/>
<path d="M4.68652 27.2956V10.9069H31.2162V27.2956H4.68652Z" fill="#777777"/>
</g>
<g id="Vector 26 (Stroke)">
<path d="M20.1837 19.3021C20.3034 19.8568 20.8857 20.2166 21.4844 20.1057L31.2162 18.3021V16.213L21.0508 18.0969C20.4522 18.2078 20.0639 18.7474 20.1837 19.3021Z" fill="white"/>
<path d="M14.852 18.0969L4.68652 16.213V18.3021L14.4184 20.1057C15.017 20.2166 15.5994 19.8568 15.7191 19.3021C15.8388 18.7474 15.4506 18.2078 14.852 18.0969Z" fill="white"/>
</g>
<path id="Rectangle 26 (Stroke)" fill-rule="evenodd" clip-rule="evenodd" d="M14.6351 17.0527C14.6351 16.487 15.13 16.0284 15.7405 16.0284H20.1622C20.7727 16.0284 21.2676 16.487 21.2676 17.0527V21.1498C21.2676 21.7155 20.7727 22.1741 20.1622 22.1741H15.7405C15.13 22.1741 14.6351 21.7155 14.6351 21.1498V17.0527ZM16.8459 18.077V20.1255H19.0568V18.077H16.8459Z" fill="white"/>
</g>
</g>
</svg>
