<svg width="20" height="20" viewBox="0 0 20 20" fill="none" xmlns="http://www.w3.org/2000/svg">
<g id="mdi:email-open-multiple-outline" clip-path="url(#clip0_1_1998)">
<path id="Vector" d="M1.66667 7.0981V18.3191H16.6667V19.9221H1.66667C0.745833 19.9221 0 19.2087 0 18.3191V7.0981H1.66667ZM19.1917 5.72754L11.6667 1.19908L4.14167 5.72754C3.65833 6.00807 3.33333 6.51301 3.33333 7.0981V15.1131C3.33333 15.9947 4.08333 16.7161 5 16.7161H18.3333C19.25 16.7161 20 15.9947 20 15.1131V7.0981C20 6.51301 19.675 6.00807 19.1917 5.72754ZM18.3333 15.1131H5V8.7011L11.6667 12.7086L18.3333 8.7011V15.1131ZM11.6667 11.1056L5 7.0981L11.6667 3.09062L18.3333 7.0981L11.6667 11.1056Z" fill="#F88D31"/>
</g>
<defs>
<clipPath id="clip0_1_1998">
<rect width="20" height="19.236" fill="white" transform="translate(0 0.686142)"/>
</clipPath>
</defs>
</svg>
