<svg width="36" height="34" viewBox="0 0 36 34" fill="none" xmlns="http://www.w3.org/2000/svg">
<g id="2 - Grafik">
<g id="Ellipse 1 (Stroke)">
<path fill-rule="evenodd" clip-rule="evenodd" d="M10.985 7.79767C12.9846 6.55961 15.3355 5.8988 17.7404 5.8988C18.3509 5.8988 18.8458 6.35739 18.8458 6.9231V16.1417H28.7945C29.405 16.1417 29.8999 16.6003 29.8999 17.166C29.8999 19.3945 29.1867 21.5729 27.8506 23.4257C26.5145 25.2786 24.6155 26.7228 22.3936 27.5756C20.1718 28.4283 17.7269 28.6515 15.3682 28.2167C13.0095 27.782 10.8429 26.7089 9.14236 25.1331C7.44183 23.5574 6.28375 21.5498 5.81458 19.3641C5.3454 17.1785 5.5862 14.913 6.50652 12.8542C7.42684 10.7954 8.98535 9.03573 10.985 7.79767ZM16.635 8.00446C15.0584 8.16779 13.5411 8.67882 12.2132 9.501C10.5772 10.514 9.30203 11.9537 8.54904 13.6382C7.79606 15.3227 7.59904 17.1762 7.98291 18.9645C8.36678 20.7527 9.3143 22.3953 10.7056 23.6846C12.097 24.9738 13.8697 25.8518 15.7995 26.2075C17.7294 26.5632 19.7297 26.3806 21.5476 25.6829C23.3655 24.9852 24.9192 23.8036 26.0124 22.2876C26.8997 21.0571 27.4512 19.6512 27.6275 18.1903H17.7404C17.4472 18.1903 17.1661 18.0824 16.9588 17.8903C16.7515 17.6982 16.635 17.4377 16.635 17.166V8.00446Z" fill="#777777"/>
<path d="M12.2132 9.501C13.5411 8.67882 15.0584 8.16779 16.635 8.00446V17.166C16.635 17.4377 16.7515 17.6982 16.9588 17.8903C17.1661 18.0824 17.4472 18.1903 17.7404 18.1903H27.6275C27.4512 19.6512 26.8997 21.0571 26.0124 22.2876C24.9192 23.8036 23.3655 24.9852 21.5476 25.6829C19.7297 26.3806 17.7294 26.5632 15.7995 26.2075C13.8697 25.8518 12.097 24.9738 10.7056 23.6846C9.3143 22.3953 8.36678 20.7527 7.98291 18.9645C7.59904 17.1762 7.79606 15.3227 8.54904 13.6382C9.30203 11.9537 10.5772 10.514 12.2132 9.501Z" fill="#777777"/>
</g>
<g id="Ellipse 2 (Stroke)">
<path fill-rule="evenodd" clip-rule="evenodd" d="M20.2751 3.12594C20.4824 2.93384 20.7635 2.82593 21.0567 2.82593C22.6535 2.82593 24.2347 3.11736 25.7099 3.68359C27.1852 4.24982 28.5256 5.07976 29.6547 6.12602C30.7838 7.17227 31.6795 8.41436 32.2906 9.78136C32.9016 11.1484 33.2162 12.6135 33.2162 14.0931C33.2162 14.6588 32.7213 15.1174 32.1108 15.1174H21.0567C20.4462 15.1174 19.9513 14.6588 19.9513 14.0931L19.9513 3.85022C19.9513 3.57856 20.0678 3.31803 20.2751 3.12594ZM22.1621 4.93159L22.1621 13.0688H30.9437C30.8401 12.2099 30.6064 11.367 30.2481 10.5653C29.7481 9.44686 29.0153 8.43061 28.0915 7.57458C27.1676 6.71855 26.0709 6.03952 24.8639 5.57624C23.9987 5.24418 23.0891 5.02763 22.1621 4.93159Z" fill="#777777"/>
<path d="M22.1621 13.0688L22.1621 4.93159C23.0891 5.02763 23.9987 5.24418 24.8639 5.57624C26.0709 6.03952 27.1676 6.71855 28.0915 7.57458C29.0153 8.43061 29.7481 9.44686 30.2481 10.5653C30.6064 11.367 30.8401 12.2099 30.9437 13.0688H22.1621Z" fill="#777777"/>
</g>
</g>
</svg>
