<svg width="28" height="27" viewBox="0 0 28 27" fill="none" xmlns="http://www.w3.org/2000/svg">
<g id="instagram-fill 1" clip-path="url(#clip0_1_1982)">
<path id="Vector" d="M14 2.24419C17.1698 2.24419 17.5653 2.25541 18.809 2.31151C20.0515 2.36762 20.8973 2.55501 21.6417 2.83329C22.4117 3.1183 23.0603 3.5043 23.709 4.12707C24.3023 4.688 24.7613 5.36652 25.0542 6.11542C25.3423 6.8302 25.5383 7.64484 25.5967 8.83987C25.6515 10.036 25.6667 10.4164 25.6667 13.4652C25.6667 16.5139 25.655 16.8943 25.5967 18.0904C25.5383 19.2855 25.3423 20.099 25.0542 20.8149C24.7621 21.5642 24.303 22.2429 23.709 22.8032C23.1256 23.3736 22.4202 23.8151 21.6417 24.097C20.8985 24.3742 20.0515 24.5627 18.809 24.6188C17.5653 24.6715 17.1698 24.6861 14 24.6861C10.8302 24.6861 10.4347 24.6749 9.19101 24.6188C7.94851 24.5627 7.10268 24.3742 6.35834 24.097C5.57939 23.8159 4.87379 23.3743 4.29101 22.8032C3.69765 22.2424 3.2386 21.5639 2.94584 20.8149C2.65651 20.1001 2.46168 19.2855 2.40334 18.0904C2.34851 16.8943 2.33334 16.5139 2.33334 13.4652C2.33334 10.4164 2.34501 10.036 2.40334 8.83987C2.46168 7.64372 2.65651 6.83132 2.94584 6.11542C3.23779 5.36606 3.69695 4.68735 4.29101 4.12707C4.87396 3.55618 5.57951 3.11463 6.35834 2.83329C7.10268 2.55501 7.94734 2.36762 9.19101 2.31151C10.4347 2.25877 10.8302 2.24419 14 2.24419ZM14 7.85467C12.4529 7.85467 10.9692 8.44577 9.87522 9.49794C8.78126 10.5501 8.16668 11.9772 8.16668 13.4652C8.16668 14.9531 8.78126 16.3802 9.87522 17.4324C10.9692 18.4845 12.4529 19.0756 14 19.0756C15.5471 19.0756 17.0308 18.4845 18.1248 17.4324C19.2188 16.3802 19.8333 14.9531 19.8333 13.4652C19.8333 11.9772 19.2188 10.5501 18.1248 9.49794C17.0308 8.44577 15.5471 7.85467 14 7.85467ZM21.5833 7.57415C21.5833 7.20215 21.4297 6.84539 21.1562 6.58234C20.8827 6.3193 20.5118 6.17153 20.125 6.17153C19.7382 6.17153 19.3673 6.3193 19.0938 6.58234C18.8203 6.84539 18.6667 7.20215 18.6667 7.57415C18.6667 7.94615 18.8203 8.30291 19.0938 8.56595C19.3673 8.82899 19.7382 8.97677 20.125 8.97677C20.5118 8.97677 20.8827 8.82899 21.1562 8.56595C21.4297 8.30291 21.5833 7.94615 21.5833 7.57415ZM14 10.0989C14.9283 10.0989 15.8185 10.4535 16.4749 11.0848C17.1313 11.7161 17.5 12.5724 17.5 13.4652C17.5 14.358 17.1313 15.2142 16.4749 15.8455C15.8185 16.4768 14.9283 16.8314 14 16.8314C13.0718 16.8314 12.1815 16.4768 11.5251 15.8455C10.8688 15.2142 10.5 14.358 10.5 13.4652C10.5 12.5724 10.8688 11.7161 11.5251 11.0848C12.1815 10.4535 13.0718 10.0989 14 10.0989Z" fill="#222222"/>
</g>
<defs>
<clipPath id="clip0_1_1982">
<rect width="28" height="26.9303" fill="white"/>
</clipPath>
</defs>
</svg>
