<svg width="24" height="24" viewBox="0 0 24 24" fill="none" xmlns="http://www.w3.org/2000/svg">
<g id="akar-icons:location">
<g id="Group">
<path id="Vector" d="M14 13.1737C15.6569 13.1737 17 11.8818 17 10.2883C17 8.6947 15.6569 7.40286 14 7.40286C12.3431 7.40286 11 8.6947 11 10.2883C11 11.8818 12.3431 13.1737 14 13.1737Z" stroke="#F88D31" stroke-width="2" stroke-linecap="round" stroke-linejoin="round"/>
<path id="Vector_2" d="M14 2.59387C11.8783 2.59387 9.84344 3.40452 8.34315 4.8475C6.84285 6.29048 6 8.24758 6 10.2883C6 12.108 6.402 13.2987 7.5 14.6164L14 21.8298L20.5 14.6164C21.598 13.2987 22 12.108 22 10.2883C22 8.24758 21.1571 6.29048 19.6569 4.8475C18.1566 3.40452 16.1217 2.59387 14 2.59387V2.59387Z" stroke="#F88D31" stroke-width="2" stroke-linecap="round" stroke-linejoin="round"/>
</g>
</g>
</svg>
