<svg width="37" height="34" viewBox="0 0 37 34" fill="none" xmlns="http://www.w3.org/2000/svg">
<g id="22 - Coin Increase">
<g id="Group 11">
<g id="Subtract (Stroke)">
<path fill-rule="evenodd" clip-rule="evenodd" d="M6.00816 22.3329C6.18952 22.2804 6.38201 22.2804 6.56338 22.3329C7.54624 22.6169 8.80174 22.7935 10.1864 22.7935C11.5711 22.7935 12.8266 22.6169 13.8094 22.3329C13.9908 22.2804 14.1833 22.2804 14.3646 22.3329C15.2206 22.5802 15.9959 22.9191 16.5802 23.3591C17.1506 23.7886 17.6864 24.4349 17.6864 25.2935C17.6864 26.0174 17.3011 26.5948 16.8484 27.0065C16.3959 27.418 15.7969 27.7426 15.1416 27.9947C13.8242 28.5013 12.072 28.7935 10.1864 28.7935C8.30083 28.7935 6.5486 28.5013 5.23123 27.9947C4.57587 27.7426 3.97691 27.418 3.52443 27.0065C3.07167 26.5948 2.6864 26.0174 2.6864 25.2935C2.6864 24.4349 3.22218 23.7886 3.79265 23.3591C4.37688 22.9191 5.15224 22.5802 6.00816 22.3329ZM4.68744 25.2944C4.69436 25.3189 4.72745 25.3972 4.86997 25.5268C5.07533 25.7136 5.42827 25.9276 5.94919 26.128C6.98435 26.5261 8.48213 26.7935 10.1864 26.7935C11.8907 26.7935 13.3885 26.5261 14.4236 26.128C14.9445 25.9276 15.2975 25.7136 15.5028 25.5268C15.6454 25.3972 15.6784 25.3189 15.6854 25.2944C15.6775 25.2659 15.6305 25.1476 15.3771 24.9568C15.0964 24.7454 14.66 24.526 14.0715 24.3346C12.9405 24.6284 11.6044 24.7935 10.1864 24.7935C8.76845 24.7935 7.43229 24.6284 6.3013 24.3346C5.71276 24.526 5.27638 24.7454 4.99571 24.9568C4.74234 25.1476 4.69533 25.2659 4.68744 25.2944Z" fill="#777777"/>
<path d="M4.86997 25.5268C4.72745 25.3972 4.69436 25.3189 4.68744 25.2944C4.69533 25.2659 4.74234 25.1476 4.99571 24.9568C5.27638 24.7454 5.71276 24.526 6.3013 24.3346C7.43229 24.6284 8.76845 24.7935 10.1864 24.7935C11.6044 24.7935 12.9405 24.6284 14.0715 24.3346C14.66 24.526 15.0964 24.7454 15.3771 24.9568C15.6305 25.1476 15.6775 25.2659 15.6854 25.2944C15.6784 25.3189 15.6454 25.3972 15.5028 25.5268C15.2975 25.7136 14.9445 25.9276 14.4236 26.128C13.3885 26.5261 11.8907 26.7935 10.1864 26.7935C8.48213 26.7935 6.98435 26.5261 5.94919 26.128C5.42827 25.9276 5.07533 25.7136 4.86997 25.5268Z" fill="#777777"/>
</g>
<path id="Subtract (Stroke)_2" fill-rule="evenodd" clip-rule="evenodd" d="M6.00816 17.8329C6.18952 17.7804 6.38201 17.7804 6.56338 17.8329C7.54624 18.1169 8.80174 18.2935 10.1864 18.2935C11.5711 18.2935 12.8266 18.1169 13.8094 17.8329C13.9908 17.7804 14.1833 17.7804 14.3646 17.8329C15.2206 18.0802 15.9959 18.4191 16.5802 18.8591C17.1506 19.2886 17.6864 19.9349 17.6864 20.7935C17.6864 21.5174 17.3011 22.0948 16.8484 22.5065C16.3959 22.918 15.7969 23.2426 15.1416 23.4947C13.8242 24.0013 12.072 24.2935 10.1864 24.2935C8.30083 24.2935 6.5486 24.0013 5.23123 23.4947C4.57587 23.2426 3.97691 22.918 3.52443 22.5065C3.07167 22.0948 2.6864 21.5174 2.6864 20.7935C2.6864 19.9349 3.22218 19.2886 3.79265 18.8591C4.37688 18.4191 5.15224 18.0802 6.00816 17.8329ZM4.68744 20.7944C4.69436 20.8189 4.72745 20.8972 4.86997 21.0268C5.07533 21.2136 5.42827 21.4276 5.94919 21.628C6.98435 22.0261 8.48213 22.2935 10.1864 22.2935C11.8907 22.2935 13.3885 22.0261 14.4236 21.628C14.9445 21.4276 15.2975 21.2136 15.5028 21.0268C15.6454 20.8972 15.6784 20.8189 15.6854 20.7944C15.6775 20.7659 15.6305 20.6476 15.3771 20.4568C15.0964 20.2454 14.66 20.026 14.0715 19.8346C12.9405 20.1284 11.6044 20.2935 10.1864 20.2935C8.76845 20.2935 7.43229 20.1284 6.3013 19.8346C5.71276 20.026 5.27638 20.2454 4.99571 20.4568C4.74234 20.6476 4.69533 20.7659 4.68744 20.7944Z" fill="#777777"/>
<g id="Subtract (Stroke)_3">
<path fill-rule="evenodd" clip-rule="evenodd" d="M6.00816 13.8329C6.18952 13.7804 6.38201 13.7804 6.56338 13.8329C7.54624 14.1169 8.80174 14.2935 10.1864 14.2935C11.5711 14.2935 12.8266 14.1169 13.8094 13.8329C13.9908 13.7804 14.1833 13.7804 14.3646 13.8329C15.2206 14.0802 15.9959 14.4191 16.5802 14.8591C17.1506 15.2886 17.6864 15.9349 17.6864 16.7935C17.6864 17.5174 17.3011 18.0948 16.8484 18.5065C16.3959 18.918 15.7969 19.2426 15.1416 19.4947C13.8242 20.0013 12.072 20.2935 10.1864 20.2935C8.30083 20.2935 6.5486 20.0013 5.23123 19.4947C4.57587 19.2426 3.97691 18.918 3.52443 18.5065C3.07167 18.0948 2.6864 17.5174 2.6864 16.7935C2.6864 15.9349 3.22218 15.2886 3.79265 14.8591C4.37688 14.4191 5.15224 14.0802 6.00816 13.8329ZM4.68744 16.7944C4.69436 16.8189 4.72745 16.8972 4.86997 17.0268C5.07533 17.2136 5.42827 17.4276 5.94919 17.628C6.98435 18.0261 8.48213 18.2935 10.1864 18.2935C11.8907 18.2935 13.3885 18.0261 14.4236 17.628C14.9445 17.4276 15.2975 17.2136 15.5028 17.0268C15.6454 16.8972 15.6784 16.8189 15.6854 16.7944C15.6775 16.7659 15.6305 16.6476 15.3771 16.4568C15.0964 16.2454 14.66 16.026 14.0715 15.8346C12.9405 16.1284 11.6044 16.2935 10.1864 16.2935C8.76845 16.2935 7.43229 16.1284 6.3013 15.8346C5.71276 16.026 5.27638 16.2454 4.99571 16.4568C4.74234 16.6476 4.69533 16.7659 4.68744 16.7944Z" fill="#777777"/>
<path d="M4.86997 17.0268C4.72745 16.8972 4.69436 16.8189 4.68744 16.7944C4.69533 16.7659 4.74234 16.6476 4.99571 16.4568C5.27638 16.2454 5.71276 16.026 6.3013 15.8346C7.43229 16.1284 8.76845 16.2935 10.1864 16.2935C11.6044 16.2935 12.9405 16.1284 14.0715 15.8346C14.66 16.026 15.0964 16.2454 15.3771 16.4568C15.6305 16.6476 15.6775 16.7659 15.6854 16.7944C15.6784 16.8189 15.6454 16.8972 15.5028 17.0268C15.2975 17.2136 14.9445 17.4276 14.4236 17.628C13.3885 18.0261 11.8907 18.2935 10.1864 18.2935C8.48213 18.2935 6.98435 18.0261 5.94919 17.628C5.42827 17.4276 5.07533 17.2136 4.86997 17.0268Z" fill="#777777"/>
</g>
<path id="Subtract (Stroke)_4" fill-rule="evenodd" clip-rule="evenodd" d="M6.00816 9.83285C6.18952 9.78045 6.38201 9.78045 6.56338 9.83285C7.54624 10.1169 8.80174 10.2935 10.1864 10.2935C11.5711 10.2935 12.8266 10.1169 13.8094 9.83286C13.9908 9.78045 14.1833 9.78045 14.3646 9.83286C15.2206 10.0802 15.9959 10.4191 16.5802 10.8591C17.1506 11.2886 17.6864 11.9349 17.6864 12.7935C17.6864 13.5174 17.3011 14.0948 16.8484 14.5065C16.3959 14.918 15.7969 15.2426 15.1416 15.4947C13.8242 16.0013 12.072 16.2935 10.1864 16.2935C8.30083 16.2935 6.5486 16.0013 5.23123 15.4947C4.57587 15.2426 3.97691 14.918 3.52443 14.5065C3.07167 14.0948 2.6864 13.5174 2.6864 12.7935C2.6864 11.9349 3.22218 11.2886 3.79265 10.8591C4.37688 10.4191 5.15224 10.0802 6.00816 9.83285ZM4.68744 12.7944C4.69436 12.8189 4.72745 12.8972 4.86997 13.0268C5.07533 13.2136 5.42827 13.4276 5.94919 13.628C6.98435 14.0261 8.48213 14.2935 10.1864 14.2935C11.8907 14.2935 13.3885 14.0261 14.4236 13.628C14.9445 13.4276 15.2975 13.2136 15.5028 13.0268C15.6454 12.8972 15.6784 12.8189 15.6854 12.7944C15.6775 12.7659 15.6305 12.6476 15.3771 12.4568C15.0964 12.2454 14.66 12.026 14.0715 11.8346C12.9405 12.1284 11.6044 12.2935 10.1864 12.2935C8.76845 12.2935 7.43229 12.1284 6.3013 11.8346C5.71276 12.026 5.27638 12.2454 4.99571 12.4568C4.74234 12.6476 4.69533 12.7659 4.68744 12.7944Z" fill="#777777"/>
<g id="Ellipse 29 (Stroke)">
<path fill-rule="evenodd" clip-rule="evenodd" d="M5.1089 8.47574C5.11594 8.45175 5.15144 8.37121 5.31095 8.23681C5.53796 8.04553 5.92809 7.82627 6.50392 7.62105C7.64819 7.21324 9.30384 6.9393 11.1878 6.9393C13.0717 6.9393 14.7273 7.21324 15.8716 7.62105C16.4474 7.82627 16.8376 8.04553 17.0646 8.23681C17.2241 8.37121 17.2596 8.45175 17.2666 8.47574C17.2596 8.49972 17.2241 8.58026 17.0646 8.71466C16.8376 8.90594 16.4474 9.12521 15.8716 9.33043C14.7273 9.73824 13.0717 10.0122 11.1878 10.0122C9.30384 10.0122 7.64819 9.73824 6.50392 9.33043C5.92809 9.12521 5.53796 8.90594 5.31095 8.71466C5.15144 8.58026 5.11594 8.49972 5.1089 8.47574ZM5.71028 5.70901C7.16652 5.19002 9.10343 4.89072 11.1878 4.89072C13.2721 4.89072 15.209 5.19002 16.6652 5.70901C17.3897 5.96719 18.0518 6.29972 18.5519 6.72116C19.0524 7.14288 19.4783 7.7343 19.4783 8.47574C19.4783 9.21717 19.0524 9.8086 18.5519 10.2303C18.0518 10.6518 17.3897 10.9843 16.6652 11.2425C15.209 11.7615 13.2721 12.0608 11.1878 12.0608C9.10343 12.0608 7.16652 11.7615 5.71028 11.2425C4.98585 10.9843 4.32375 10.6518 3.82358 10.2303C3.32309 9.8086 2.89722 9.21717 2.89722 8.47574C2.89722 7.7343 3.32309 7.14288 3.82358 6.72116C4.32375 6.29972 4.98585 5.96719 5.71028 5.70901Z" fill="#777777"/>
<path d="M5.1089 8.47574C5.11594 8.45175 5.15144 8.37121 5.31095 8.23681C5.53796 8.04553 5.92809 7.82627 6.50392 7.62105C7.64819 7.21324 9.30384 6.9393 11.1878 6.9393C13.0717 6.9393 14.7273 7.21324 15.8716 7.62105C16.4474 7.82627 16.8376 8.04553 17.0646 8.23681C17.2241 8.37121 17.2596 8.45175 17.2666 8.47574C17.2596 8.49972 17.2241 8.58026 17.0646 8.71466C16.8376 8.90594 16.4474 9.12521 15.8716 9.33043C14.7273 9.73824 13.0717 10.0122 11.1878 10.0122C9.30384 10.0122 7.64819 9.73824 6.50392 9.33043C5.92809 9.12521 5.53796 8.90594 5.31095 8.71466C5.15144 8.58026 5.11594 8.49972 5.1089 8.47574Z" fill="#777777"/>
</g>
<path id="Vector 25 (Stroke)" fill-rule="evenodd" clip-rule="evenodd" d="M27.5937 5.14415C28.0104 4.80624 28.6327 4.80624 29.0495 5.14415L33.4711 8.72917C33.9306 9.10169 33.9771 9.7488 33.5751 10.1745C33.1731 10.6003 32.4748 10.6434 32.0153 10.2709L29.427 8.17231V28.4494C29.427 29.0151 28.9321 29.4737 28.3216 29.4737C27.7111 29.4737 27.2162 29.0151 27.2162 28.4494V8.17231L24.6279 10.2709C24.1684 10.6434 23.4701 10.6003 23.0681 10.1745C22.6661 9.7488 22.7126 9.10169 23.1721 8.72917L27.5937 5.14415Z" fill="#777777"/>
</g>
</g>
</svg>
