<svg width="34" height="32" viewBox="0 0 34 32" fill="none" xmlns="http://www.w3.org/2000/svg">
<g id="start-up 1" clip-path="url(#clip0_1_1427)">
<path id="Vector" d="M5.42203 20.2733C5.2343 20.6202 5.30742 21.0397 5.60319 21.314L5.84076 21.5341C6.52717 20.7804 7.32718 19.9624 8.29746 19.0636C8.36603 19 8.43662 18.9693 8.50543 18.9107L6.97702 17.4942C6.08845 18.9834 5.5703 20.0009 5.42203 20.2733Z" fill="#4643D3"/>
<path id="Vector_2" d="M13.7934 24.1562C12.8208 25.0573 11.9403 25.8001 11.1315 26.4366L11.4533 26.7348C11.7518 27.0114 12.2088 27.078 12.5845 26.8989C13.0877 26.6586 13.8791 26.3135 15.5591 25.4465L13.9586 23.9634C13.8953 24.0274 13.8622 24.0926 13.7934 24.1562Z" fill="#4643D3"/>
<path id="Vector_3" d="M13.2754 19.5447C12.5733 18.8941 10.5989 19.4774 9.67133 20.3366C6.56845 23.2118 5.16704 25.2503 4.53781 26.4539C4.35742 26.7988 4.43256 27.2116 4.72504 27.4826C5.01802 27.7543 5.46433 27.8233 5.83675 27.6561C7.1066 27.0848 9.27968 25.7923 12.4195 22.8831C13.4394 21.9376 13.9426 20.1631 13.2762 19.5454L13.2754 19.5447Z" fill="#4643D3"/>
<path id="Vector_4" d="M3.61355 12.5691L0.865636 15.1154C0.554943 15.4033 0.491186 15.8489 0.711302 16.202C0.926105 16.5504 1.37595 16.7279 1.80404 16.6217C3.28919 16.2526 4.59597 16.0967 5.47593 16.3059C6.72781 14.2435 8.07305 12.345 9.49774 10.6204C8.67369 10.1309 5.95058 10.4036 3.61355 12.5691Z" fill="#4643D3"/>
<path id="Vector_5" d="M17.0257 31.2151C17.3999 31.3905 17.8531 31.3228 18.1494 31.048L20.8975 28.5017C23.0251 26.5298 23.3995 23.9857 22.9168 23.179C20.8411 24.6285 18.7384 25.8525 16.7765 26.8773C16.9119 27.5855 16.8218 28.2727 16.5018 30.2795C16.4393 30.668 16.6558 31.0438 17.0257 31.2151Z" fill="#4643D3"/>
<path id="Vector_6" d="M19.8695 9.61369C18.7333 10.6668 18.7333 12.3799 19.8695 13.433C21.006 14.4861 22.855 14.4861 23.9915 13.433C25.128 12.3799 25.128 10.6668 23.9915 9.61369C22.855 8.56057 21.006 8.56057 19.8695 9.61369Z" fill="#4643D3"/>
<path id="Vector_7" d="M33.686 1.46121C33.6511 1.016 33.2685 0.664108 32.7896 0.630817C30.4035 0.464363 28.0267 0.736316 25.697 1.3965C25.8724 2.87958 26.7002 4.48457 28.1135 5.79416C29.5437 7.11923 31.3229 7.88609 32.952 8.02956C33.5795 5.99203 33.877 3.80985 33.686 1.46121Z" fill="#4643D3"/>
<path id="Vector_8" d="M26.7397 7.06744C25.123 5.56936 24.1358 3.7726 23.819 2.02319C17.9849 4.24031 12.4 9.082 7.98682 15.8836L10.1794 17.9153C11.6774 17.3517 13.496 17.2028 14.6495 18.2714C15.8045 19.3419 15.6408 21.0263 15.0328 22.4126L17.2975 24.5111C22.9451 21.3571 29.5203 16.3881 32.3162 9.77712C30.3823 9.50634 28.3827 8.58991 26.7397 7.06744ZM25.3654 14.7063C23.4716 16.4611 20.3897 16.4611 18.4957 14.7063C16.6017 12.9512 16.6017 10.0953 18.4957 8.34046C20.3897 6.58566 23.4716 6.58566 25.3654 8.34046C27.2594 10.0955 27.2594 12.9512 25.3654 14.7063Z" fill="#4643D3"/>
</g>
<defs>
<clipPath id="clip0_1_1427">
<rect width="33.1622" height="30.7287" fill="white" transform="translate(0.581055 0.583008)"/>
</clipPath>
</defs>
</svg>
