<svg width="38" height="39" viewBox="0 0 38 39" fill="none" xmlns="http://www.w3.org/2000/svg">
<g id="8 - Time Money" filter="url(#filter0_d_1_1477)">
<g id="Subtract (Stroke)">
<path fill-rule="evenodd" clip-rule="evenodd" d="M24.4519 4.00936C24.9107 3.70197 25.5318 3.82476 25.8392 4.2836L31.9614 13.4225C32.2688 13.8813 32.146 14.5025 31.6872 14.8098L24.4037 19.6891C24.239 19.7994 24.0453 19.8583 23.8471 19.8583H20.992C20.7052 19.8583 20.4323 19.7352 20.2424 19.5202C20.0526 19.3052 19.9642 19.0191 19.9997 18.7345C20.0354 18.4479 20.0539 18.1555 20.0539 17.8583C20.0539 15.0444 18.3935 12.6162 15.9947 11.5039C15.6669 11.3519 15.4466 11.0349 15.4185 10.6746C15.3903 10.3144 15.5587 9.96697 15.8589 9.76586L24.4519 4.00936ZM18.295 10.5412C20.5701 12.1736 22.0539 14.8419 22.0539 17.8583L23.5431 17.8583L29.7432 13.7048L24.7342 6.22753L18.295 10.5412Z" fill="#777777"/>
<path d="M22.0539 17.8583C22.0539 14.8419 20.5701 12.1736 18.295 10.5412L24.7342 6.22753L29.7432 13.7048L23.5431 17.8583L22.0539 17.8583Z" fill="#777777"/>
</g>
<path id="Subtract" d="M21.0526 18.0043C21.0535 17.9557 21.0539 17.9071 21.0539 17.8583C21.0539 17.2222 20.9797 16.6036 20.8395 16.0104C21.0193 15.9716 21.195 15.8987 21.3572 15.7901C22.0455 15.329 22.2296 14.3973 21.7686 13.709C21.3075 13.0208 20.3758 12.8366 19.6875 13.2977C19.6738 13.3069 19.6603 13.3162 19.647 13.3258C19.266 12.7726 18.8172 12.2698 18.3126 11.8293C18.3961 11.7616 18.4833 11.6971 18.5744 11.6361C20.1803 10.5602 22.3543 10.99 23.4302 12.5959C24.506 14.2019 24.0763 16.3759 22.4703 17.4517C22.0291 17.7473 21.545 17.9292 21.0526 18.0043Z" fill="white"/>
<g id="Subtract (Stroke)_2">
<path fill-rule="evenodd" clip-rule="evenodd" d="M19.9997 18.7345C20.0622 18.234 20.4876 17.8583 20.9921 17.8583H29.054C29.6062 17.8583 30.054 18.306 30.054 18.8583V29.8583C30.054 30.4106 29.6062 30.8583 29.054 30.8583H11.054C10.5017 30.8583 10.054 30.4106 10.054 29.8583V25.6062C10.054 25.2971 10.1969 25.0053 10.4413 24.8159C10.6856 24.6265 11.0038 24.5607 11.3032 24.6378C11.8617 24.7816 12.4481 24.8583 13.054 24.8583C16.6229 24.8583 19.5693 22.1865 19.9997 18.7345ZM21.8307 19.8583C20.9209 23.8666 17.3375 26.8583 13.054 26.8583C12.7162 26.8583 12.3825 26.8396 12.054 26.8033V28.8583H28.054V19.8583H21.8307Z" fill="#777777"/>
<path d="M13.054 26.8583C17.3375 26.8583 20.9209 23.8666 21.8307 19.8583H28.054V28.8583H12.054V26.8033C12.3825 26.8396 12.7162 26.8583 13.054 26.8583Z" fill="#777777"/>
</g>
<path id="Subtract_2" fill-rule="evenodd" clip-rule="evenodd" d="M17.0784 24.7738C17.2839 26.511 18.7616 27.8583 20.554 27.8583C22.487 27.8583 24.054 26.2913 24.054 24.3583C24.054 22.4253 22.487 20.8583 20.554 20.8583C20.5266 20.8583 20.4993 20.8586 20.4721 20.8592C19.8039 22.5094 18.601 23.8858 17.0784 24.7738ZM20.554 22.8583C19.7255 22.8583 19.054 23.5298 19.054 24.3583C19.054 25.1867 19.7255 25.8583 20.554 25.8583C21.3824 25.8583 22.054 25.1867 22.054 24.3583C22.054 23.5298 21.3824 22.8583 20.554 22.8583Z" fill="white"/>
<path id="Ellipse 9 (Stroke)" fill-rule="evenodd" clip-rule="evenodd" d="M14.2134 11.1012C9.93993 11.1012 6.47558 14.3113 6.47558 18.2712C6.47558 22.2311 9.93993 25.4413 14.2134 25.4413C18.4869 25.4413 21.9513 22.2311 21.9513 18.2712C21.9513 14.3113 18.4869 11.1012 14.2134 11.1012ZM4.26477 18.2712C4.26477 13.1799 8.71893 9.05261 14.2134 9.05261C19.7079 9.05261 24.1621 13.1799 24.1621 18.2712C24.1621 23.3625 19.7079 27.4899 14.2134 27.4899C8.71893 27.4899 4.26477 23.3625 4.26477 18.2712Z" fill="#777777"/>
<path id="Vector 11 (Stroke)" fill-rule="evenodd" clip-rule="evenodd" d="M14.2134 13.1498C14.8239 13.1498 15.3188 13.6084 15.3188 14.1741V17.847L18.3113 20.6198C18.743 21.0198 18.743 21.6684 18.3113 22.0684C17.8796 22.4684 17.1797 22.4684 16.748 22.0684L13.4318 18.9955C13.2245 18.8034 13.108 18.5429 13.108 18.2712V14.1741C13.108 13.6084 13.6029 13.1498 14.2134 13.1498Z" fill="#777777"/>
</g>
<defs>
<filter id="filter0_d_1_1477" x="-1.94604" y="0.858276" width="43.3729" height="40.7773" filterUnits="userSpaceOnUse" color-interpolation-filters="sRGB">
<feFlood flood-opacity="0" result="BackgroundImageFix"/>
<feColorMatrix in="SourceAlpha" type="matrix" values="0 0 0 0 0 0 0 0 0 0 0 0 0 0 0 0 0 0 127 0" result="hardAlpha"/>
<feOffset dy="4"/>
<feGaussianBlur stdDeviation="2"/>
<feComposite in2="hardAlpha" operator="out"/>
<feColorMatrix type="matrix" values="0 0 0 0 0 0 0 0 0 0 0 0 0 0 0 0 0 0 0.25 0"/>
<feBlend mode="normal" in2="BackgroundImageFix" result="effect1_dropShadow_1_1477"/>
<feBlend mode="normal" in="SourceGraphic" in2="effect1_dropShadow_1_1477" result="shape"/>
</filter>
</defs>
</svg>
