<svg width="28" height="27" viewBox="0 0 28 27" fill="none" xmlns="http://www.w3.org/2000/svg">
<g id="twitter-fill 1" clip-path="url(#clip0_1_1979)">
<path id="Vector" d="M25.8557 6.34659C24.965 6.72551 24.0205 6.97437 23.0533 7.08493C24.0727 6.49856 24.8357 5.57572 25.2 4.48839C24.2433 5.03598 23.1945 5.41973 22.1013 5.62732C21.367 4.87168 20.3938 4.37053 19.3328 4.20179C18.2718 4.03305 17.1826 4.20618 16.2345 4.69425C15.2864 5.18231 14.5325 5.95799 14.09 6.90067C13.6475 7.84335 13.5412 8.90023 13.7877 9.907C11.8476 9.81348 9.94972 9.32859 8.21717 8.4838C6.48462 7.63902 4.95615 6.45324 3.731 5.00344C3.29734 5.71984 3.06945 6.53423 3.07067 7.36321C3.07067 8.99025 3.93167 10.4277 5.24067 11.2692C4.46601 11.2458 3.7084 11.0446 3.031 10.6824V10.7407C3.03123 11.8243 3.4211 12.8745 4.13449 13.7132C4.84788 14.5519 5.8409 15.1275 6.94517 15.3424C6.22605 15.5299 5.47203 15.5575 4.74017 15.4232C5.05151 16.356 5.65834 17.1717 6.47569 17.7562C7.29304 18.3407 8.27998 18.6647 9.29833 18.6829C8.28623 19.4474 7.12737 20.0126 5.88803 20.3461C4.64868 20.6795 3.35315 20.7748 2.0755 20.6264C4.30581 22.0059 6.90211 22.7383 9.55383 22.7359C18.529 22.7359 23.4372 15.5848 23.4372 9.38298C23.4372 9.181 23.4313 8.97678 23.422 8.77705C24.3773 8.11296 25.2019 7.29029 25.8568 6.34771L25.8557 6.34659Z" fill="#222222"/>
</g>
<defs>
<clipPath id="clip0_1_1979">
<rect width="28" height="26.9303" fill="white"/>
</clipPath>
</defs>
</svg>
