<svg width="36" height="28" viewBox="0 0 36 28" fill="none" xmlns="http://www.w3.org/2000/svg">
<g id="14 - CEO">
<g id="Ellipse 14 (Stroke)">
<path fill-rule="evenodd" clip-rule="evenodd" d="M16.2649 5.62354C14.608 5.62354 13.2649 6.96668 13.2649 8.62354C13.2649 10.2804 14.608 11.6235 16.2649 11.6235C17.9217 11.6235 19.2649 10.2804 19.2649 8.62354C19.2649 6.96668 17.9217 5.62354 16.2649 5.62354ZM11.2649 8.62354C11.2649 5.86211 13.5035 3.62354 16.2649 3.62354C19.0263 3.62354 21.2649 5.86211 21.2649 8.62354C21.2649 11.385 19.0263 13.6235 16.2649 13.6235C13.5035 13.6235 11.2649 11.385 11.2649 8.62354Z" fill="#8F8F8F"/>
<path d="M13.2649 8.62354C13.2649 6.96668 14.608 5.62354 16.2649 5.62354C17.9217 5.62354 19.2649 6.96668 19.2649 8.62354C19.2649 10.2804 17.9217 11.6235 16.2649 11.6235C14.608 11.6235 13.2649 10.2804 13.2649 8.62354Z" fill="#8F8F8F"/>
</g>
<g id="Vector 34 (Stroke)">
<path d="M14.8815 17.7309L16.2649 18.8413L17.6482 17.7309C17.2191 17.6614 16.7588 17.6235 16.2649 17.6235C15.7709 17.6235 15.3107 17.6614 14.8815 17.7309Z" fill="#8F8F8F"/>
<path fill-rule="evenodd" clip-rule="evenodd" d="M16.2649 17.6235C15.7709 17.6235 15.3107 17.6614 14.8815 17.7309L13.3966 16.0213C14.2596 15.7657 15.2135 15.6235 16.2649 15.6235C17.449 15.6235 18.5096 15.8039 19.4558 16.1235L17.6482 17.7309C17.2191 17.6614 16.7588 17.6235 16.2649 17.6235ZM16.1541 26.6174H16.3756C16.302 26.6256 16.2277 26.6256 16.1541 26.6174Z" fill="#8F8F8F"/>
<path d="M19.8951 18.4921L17.5568 20.3689L19.1331 23.1274C19.3568 23.5189 19.2908 24.0118 18.972 24.3306L16.972 26.3306C16.8049 26.4977 16.5935 26.5933 16.3756 26.6174H25.1525H25.3753C25.9242 26.5564 26.3197 26.062 26.2587 25.5131L25.2649 25.6235C26.2587 25.5131 26.2586 25.5114 26.2586 25.5114L26.2583 25.5091L26.2576 25.5029L26.2553 25.4836C26.2533 25.4679 26.2506 25.4463 26.2469 25.4192C26.2396 25.3649 26.2285 25.2885 26.2129 25.1925C26.1817 25.0005 26.1321 24.7294 26.0571 24.3997C25.9075 23.7421 25.6545 22.8414 25.2388 21.8667C24.5915 20.3492 23.5183 18.5818 21.7649 17.313L19.8951 18.4921Z" fill="#8F8F8F"/>
<path d="M15.5578 26.3306L13.5578 24.3306C13.2389 24.0118 13.1729 23.5189 13.3966 23.1274L14.9729 20.3689L12.6347 18.4921L11.0375 17.1235C9.12166 18.4014 7.97107 20.272 7.29095 21.8667C6.87524 22.8414 6.62222 23.7421 6.47262 24.3997C6.39761 24.7294 6.34803 25.0005 6.31682 25.1925C6.30121 25.2885 6.29017 25.3649 6.28282 25.4192C6.27915 25.4463 6.27639 25.4679 6.27446 25.4836L6.27215 25.5029L6.27142 25.5091L6.27117 25.5114L6.27097 25.5131C6.20999 26.062 6.60552 26.5564 7.15443 26.6174H7.37696H16.1541C15.9362 26.5933 15.7248 26.4977 15.5578 26.3306Z" fill="#8F8F8F"/>
<path d="M15.5121 23.4565L16.2649 22.1391L17.0177 23.4565L16.2649 24.2093L15.5121 23.4565Z" fill="#8F8F8F"/>
</g>
</g>
</svg>
